<?xml version="1.0" encoding="UTF-8" standalone="no"?>
<svg width="75px" height="75px" viewBox="0 0 75 75" version="1.1" xmlns="http://www.w3.org/2000/svg" xmlns:xlink="http://www.w3.org/1999/xlink" xmlns:sketch="http://www.bohemiancoding.com/sketch/ns">
    <!-- Generator: Sketch 3.0.2 (7799) - http://www.bohemiancoding.com/sketch -->
    <title>ios</title>
    <description>Created with Sketch.</description>
    <defs>
        <linearGradient x1="19.5711061%" y1="4.04884719%" x2="85.3645401%" y2="100%" id="linearGradient-1">
            <stop stop-color="#28CFE0" offset="0%"></stop>
            <stop stop-color="#0091BA" offset="100%"></stop>
        </linearGradient>
        <path id="path-2" d="M36.5636364,66 C53.1208281,66 67,52.3446857 67,36.0545455 C67,18.6553143 53.1208281,5 36.5636364,5 C18.8791719,5 5,18.6553143 5,36.0545455 C5,52.3446857 18.8791719,66 36.5636364,66 Z"></path>
        <path d="M51.5354614,39.1453752 C47.7656575,38.2004415 44.0235791,37.4153192 42.2175215,35.1853628 C39.4882909,31.8175669 38.5993415,25.2744455 38.1830255,19.83215 C38.0101743,17.5717119 38.1050475,14.1390335 36.1655609,15.1976205 C35.2562506,16.3851016 35.254951,19.6919341 35.1089588,21.2809032 C34.5184919,27.6794541 33.353587,33.9874307 29.3450837,36.7303511 C27.7283394,37.8372734 25.9062531,38.2958058 23.2926899,38.9524694 C21.7695193,39.3343619 19.2837533,39.9644628 19,41.1619594 C28.8148332,43.6997813 47.0703535,42.1373749 54,40.6180783 C53.8085206,39.8007324 52.8259976,39.468917 51.5354614,39.1453752 L51.5354614,39.1453752 Z M19,41.8923529 C19.2546511,42.7460266 20.5717225,43.175265 21.5512835,43.504508 C24.774551,44.5891756 28.604296,45.8227449 30.4974777,48.1518985 C31.4019881,49.2658225 32.1485889,51.0115959 32.9988721,52.6062845 C33.6834368,53.8896332 34.5545433,56.111368 36.6550899,55.9956526 C38.3873251,55.9000237 39.5798907,53.4865945 40.3104401,52.0255244 C41.2210241,50.2028985 41.9376913,48.3754692 43.0035821,46.9903783 C44.4781294,45.0729968 47.4276578,43.970426 50.0262274,43.2141279 C50.7459314,43.0045303 53.5457926,42.5979983 54,41.4683544 C53.7240918,41.5242471 31.3460256,46.0851786 19,41.8923529 L19,41.8923529 Z" id="path-3"></path>
    </defs>
    <g id="Page-1" stroke="none" stroke-width="1" fill="none" fill-rule="evenodd" sketch:type="MSPage">
        <g id="All-Balances" sketch:type="MSArtboardGroup" transform="translate(-313.000000, -114.000000)">
            <g id="Announcement" sketch:type="MSLayerGroup" transform="translate(300.000000, 101.000000)">
                <g id="Outline-+-Oval-1-+-Shape" transform="translate(14.000000, 14.000000)">
                    <rect id="Outline" stroke="#D9D9D9" stroke-width="0.5" fill="#FFFFFF" sketch:type="MSShapeGroup" x="0" y="0" width="72" height="72" rx="18"></rect>
                    <g id="Oval-1">
                        <use fill="none" sketch:type="MSShapeGroup" xlink:href="#path-2"></use>
                        <use fill="none" xlink:href="#path-2"></use>
                        <use fill="url(#linearGradient-1)" fill-rule="evenodd" xlink:href="#path-2"></use>
                    </g>
                    <g id="Shape">
                        <use fill="#FFFFFF" fill-rule="evenodd" sketch:type="MSShapeGroup" transform="translate(36.500000, 35.500000) rotate(12.000000) translate(-36.500000, -35.500000) " xlink:href="#path-3"></use>
                        <use fill="none" xlink:href="#path-3"></use>
                    </g>
                </g>
            </g>
        </g>
    </g>
</svg>