<svg width="82" height="72" viewBox="0 0 82 72" xmlns="http://www.w3.org/2000/svg" xmlns:sketch="http://www.bohemiancoding.com/sketch/ns"><title>Group</title><desc>Created with Sketch.</desc><g sketch:type="MSShapeGroup" transform="translate(1)" fill="#FFBF49"><path d="M78.992 59.769l-32.064-55.538c-1.429-2.475-4.07-4-6.928-4-2.858 0-5.498 1.525-6.928 4l-32.064 55.538c-1.43 2.476-1.43 5.524 0 8 1.429 2.476 4.07 4 6.928 4h64.129c2.857 0 5.499-1.524 6.928-4 1.429-2.476 1.429-5.525-.001-8zm-71.056 4l32.064-55.538 32.064 55.537h-64.128v.001zM36 26.706v16.693c0 2.209 1.791 4 4 4s4-1.791 4-4v-16.693c0-2.209-1.791-4-4-4s-4 1.791-4 4z"/><circle cx="40" cy="54" r="4"/></g></svg>