<svg width="30" height="24" viewBox="0 0 30 24" xmlns="http://www.w3.org/2000/svg" xmlns:sketch="http://www.bohemiancoding.com/sketch/ns"><title>hamburger</title><path d="M1.992 0c-1.1 0-1.992.888-1.992 2 0 1.105.898 2 1.992 2h26.017c1.1 0 1.992-.888 1.992-2 0-1.105-.898-2-1.992-2h-26.017zm0 10c-1.1 0-1.992.888-1.992 2 0 1.105.898 2 1.992 2h26.017c1.1 0 1.992-.888 1.992-2 0-1.105-.898-2-1.992-2h-26.017zm0 10c-1.1 0-1.992.888-1.992 2 0 1.105.898 2 1.992 2h26.017c1.1 0 1.992-.888 1.992-2 0-1.105-.898-2-1.992-2h-26.017z" sketch:type="MSShapeGroup" fill="#fff"/></svg>