<?xml version="1.0" encoding="UTF-8" standalone="no"?>
<svg width="30px" height="24px" viewBox="0 0 30 24" version="1.1" xmlns="http://www.w3.org/2000/svg" xmlns:xlink="http://www.w3.org/1999/xlink" xmlns:sketch="http://www.bohemiancoding.com/sketch/ns">
    <title>hamburger</title>
    <description>Created with Sketch (http://www.bohemiancoding.com/sketch)</description>
    <defs></defs>
    <g id="Page-1" stroke="none" stroke-width="1" fill="none" fill-rule="evenodd" sketch:type="MSPage">
        <g id="All-Balances" sketch:type="MSArtboardGroup" transform="translate(-57.000000, -7.000000)" fill="#FFFFFF">
            <path d="M58.991617,7 C57.8916773,7 57,7.88772964 57,9 C57,10.1045695 57.8978404,11 58.991617,11 L85.008383,11 C86.1083227,11 87,10.1122704 87,9 C87,7.8954305 86.1021596,7 85.008383,7 L58.991617,7 Z M58.991617,17 C57.8916773,17 57,17.8877296 57,19 C57,20.1045695 57.8978404,21 58.991617,21 L85.008383,21 C86.1083227,21 87,20.1122704 87,19 C87,17.8954305 86.1021596,17 85.008383,17 L58.991617,17 Z M58.991617,27 C57.8916773,27 57,27.8877296 57,29 C57,30.1045695 57.8978404,31 58.991617,31 L85.008383,31 C86.1083227,31 87,30.1122704 87,29 C87,27.8954305 86.1021596,27 85.008383,27 L58.991617,27 Z" id="hamburger" sketch:type="MSShapeGroup"></path>
        </g>
    </g>
</svg>