<svg width="24" height="24" viewBox="0 0 24 24" xmlns="http://www.w3.org/2000/svg" xmlns:sketch="http://www.bohemiancoding.com/sketch/ns"><title>import-csv</title><g sketch:type="MSArtboardGroup" fill="none"><g sketch:type="MSLayerGroup"><g sketch:type="MSShapeGroup"><path d="M10.921 21.638h-9.921v-20.454h11.016l4.721 4.72v4.207" stroke="#D4D4D4" stroke-linecap="round" stroke-linejoin="round"/><path d="M12.016 1.184v4.72h4.721" stroke="#D4D4D4" stroke-width=".786" stroke-linecap="round" stroke-linejoin="round"/><path d="M17.508 23.014c-3.042 0-5.508-2.466-5.508-5.507 0-3.041 2.466-5.507 5.508-5.507s5.508 2.466 5.508 5.507c0 3.041-2.466 5.507-5.508 5.507z" stroke="#D4D4D4"/><path d="M17.5 15v5.411" stroke="#7ED321" stroke-linecap="round"/><path d="M20 17.5l-2.5-2.5-2.5 2.5" stroke="#7ED321" stroke-linecap="round"/></g><path d="M5.182 12.342c.759 0 1.169-.438 1.372-.844l-.698-.33c-.104.25-.372.457-.674.457-.514 0-.877-.396-.877-.91s.363-.91.877-.91c.302 0 .57.207.674.457l.698-.33c-.207-.415-.613-.844-1.372-.844-.966 0-1.702.655-1.702 1.626 0 .966.735 1.626 1.702 1.626zm2.89 0c.844 0 1.311-.42 1.311-1.051 0-1.169-1.777-.877-1.777-1.278 0-.132.104-.226.339-.226.311 0 .655.108.919.325l.443-.58c-.335-.288-.773-.438-1.278-.438-.806 0-1.254.471-1.254.999 0 1.212 1.782.867 1.782 1.296 0 .151-.17.259-.448.259-.429 0-.778-.189-1.004-.415l-.429.608c.316.302.759.5 1.395.5zm3.555-.057l1.188-3.144h-.919l-.778 2.268-.773-2.268h-.919l1.183 3.144h1.018z" fill-opacity=".608" fill="#000" sketch:type="MSShapeGroup"/></g></g></svg>