<?xml version="1.0" encoding="UTF-8" standalone="no"?>
<svg width="36px" height="40px" viewBox="0 0 36 40" version="1.1" xmlns="http://www.w3.org/2000/svg" xmlns:xlink="http://www.w3.org/1999/xlink" xmlns:sketch="http://www.bohemiancoding.com/sketch/ns">
    <!-- Generator: Sketch 3.0.2 (7799) - http://www.bohemiancoding.com/sketch -->
    <title>logo</title>
    <description>Created with Sketch.</description>
    <defs>
        <linearGradient x1="57.4308145%" y1="42.0923849%" x2="71.6496325%" y2="132.954876%" id="linearGradient-1">
            <stop stop-color="#1CA9C9" stop-opacity="0" offset="0%"></stop>
            <stop stop-color="#1CA9C9" stop-opacity="0.15" offset="100%"></stop>
        </linearGradient>
        <path d="M48.3050341,38.5564636 C44.5352301,37.6345771 40.7931517,36.8686041 38.9870942,34.6930369 C36.2578636,31.4073823 35.3689142,25.0238493 34.9525982,19.7142927 C34.7797469,17.5089872 34.8746202,14.1600327 32.9351336,15.1928005 C32.0258233,16.3513187 32.0245236,19.5774967 31.8785315,21.1277104 C31.2880646,27.3701991 30.1231596,33.5243227 26.1146563,36.2003426 C24.4979121,37.2802668 22.6758257,37.7276154 20.0622625,38.3682628 C18.5390919,38.7408409 16.053326,39.3555735 15.7695726,40.5238629 C25.5844058,42.9997867 43.8399261,41.4754877 50.7695726,39.9932471 C50.5780933,39.1958365 49.5955703,38.8721141 48.3050341,38.5564636 L48.3050341,38.5564636 Z M15.7695726,41.2364419 C16.0242238,42.0692942 17.3412951,42.4880634 18.3208561,42.809276 C21.5441236,43.8674884 25.3738687,45.0709707 27.2670503,47.3433156 C28.1715608,48.4300707 28.9181615,50.1332643 29.7684447,51.689058 C30.4530095,52.9411056 31.324116,55.1086517 33.4246626,54.9957587 C35.1568977,54.9024622 36.3494633,52.547897 37.0800128,51.1224628 C37.9905967,49.3442912 38.707264,47.5614334 39.7731547,46.2101252 C41.247702,44.3395091 44.1972304,43.2638302 46.7958,42.5259785 C47.5155041,42.321493 50.3153652,41.9248763 50.7695726,40.8227848 C50.4936644,40.8773143 28.1155983,45.3270035 15.7695726,41.2364419 L15.7695726,41.2364419 Z" id="path-2"></path>
    </defs>
    <g id="Page-1" stroke="none" stroke-width="1" fill="none" fill-rule="evenodd" sketch:type="MSPage">
        <g id="All-Balances" sketch:type="MSArtboardGroup" transform="translate(-13.000000, -14.000000)">
            <g id="Navigation" sketch:type="MSLayerGroup">
                <g id="Shape">
                    <use fill="#FFFFFF" sketch:type="MSShapeGroup" transform="translate(33.269573, 35.000000) rotate(12.000000) translate(-33.269573, -35.000000) " xlink:href="#path-2"></use>
                    <use fill="url(#linearGradient-1)" xlink:href="#path-2"></use>
                </g>
            </g>
        </g>
    </g>
</svg>