<svg width="1000" height="606" viewBox="0 0 1000 606" xmlns="http://www.w3.org/2000/svg" xmlns:sketch="http://www.bohemiancoding.com/sketch/ns"><title>wireframe</title><desc>Created with Sketch.</desc><g sketch:type="MSLayerGroup" fill="none"><g sketch:type="MSShapeGroup" transform="translate(-100 -207) translate(100 207)"><path fill="#F8F8F8" d="M265 0h735v58h-735z"/><path fill="#EBEBEB" d="M0 1h1000v-1h-1000z"/><path fill="#EBEBEB" d="M265 58h735v-1h-735z"/><rect fill="#A381C1" x="8" y="11" width="218" height="38" rx="4"/></g><path d="M385.75 106v-22.5h18v22.5h-18zm18 0v-22.5h18v22.5h-18zm18 0v-22.5h18v22.5h-18zm18 0v-22.5h18v22.5h-18zm18 0v-22.5h18v22.5h-18zm27 0v-22.5h18v22.5h-18zm18 0v-22.5h18v22.5h-18zm18 0v-22.5h18v22.5h-18zm18 0v-22.5h18v22.5h-18zm18 0v-22.5h18v22.5h-18zm27 0v-22.5h18v22.5h-18zm18 0v-22.5h18v22.5h-18zm18 0v-22.5h18v22.5h-18zm18 0v-22.5h18v22.5h-18zm18 0v-22.5h18v22.5h-18zm27 0v-22.5h18v22.5h-18zm18 0v-22.5h18v22.5h-18zm18 0v-22.5h18v22.5h-18zm27 0v-22.5h18v22.5h-18zm18 0v-22.5h18v22.5h-18zm18 0v-22.5h18v22.5h-18zm18 0v-22.5h18v22.5h-18zm18 0v-22.5h18v22.5h-18zm-432 50v-22.5h18v22.5h-18zm18 0v-22.5h18v22.5h-18zm18 0v-22.5h18v22.5h-18zm18 0v-22.5h18v22.5h-18zm18 0v-22.5h18v22.5h-18zm18 0v-22.5h18v22.5h-18zm18 0v-22.5h18v22.5h-18zm18 0v-22.5h18v22.5h-18zm27 0v-22.5h18v22.5h-18zm18 0v-22.5h18v22.5h-18zm18 0v-22.5h18v22.5h-18zm18 0v-22.5h18v22.5h-18zm18 0v-22.5h18v22.5h-18zm27 0v-22.5h18v22.5h-18zm18 0v-22.5h18v22.5h-18zm18 0v-22.5h18v22.5h-18zm18 0v-22.5h18v22.5h-18zm18 0v-22.5h18v22.5h-18zm-324 50v-22.5h18v22.5h-18zm18 0v-22.5h18v22.5h-18zm18 0v-22.5h18v22.5h-18zm18 0v-22.5h18v22.5h-18zm18 0v-22.5h18v22.5h-18zm27 0v-22.5h18v22.5h-18zm18 0v-22.5h18v22.5h-18zm18 0v-22.5h18v22.5h-18zm18 0v-22.5h18v22.5h-18zm18 0v-22.5h18v22.5h-18zm18 0v-22.5h18v22.5h-18zm18 0v-22.5h18v22.5h-18zm18 0v-22.5h18v22.5h-18zm27 0v-22.5h18v22.5h-18zm18 0v-22.5h18v22.5h-18zm18 0v-22.5h18v22.5h-18zm18 0v-22.5h18v22.5h-18zm18 0v-22.5h18v22.5h-18zm18 0v-22.5h18v22.5h-18zm27 0v-22.5h18v22.5h-18zm18 0v-22.5h18v22.5h-18zm-387 50v-22.5h18v22.5h-18zm18 0v-22.5h18v22.5h-18zm18 0v-22.5h18v22.5h-18zm18 0v-22.5h18v22.5h-18zm18 0v-22.5h18v22.5h-18zm18 0v-22.5h18v22.5h-18zm27 0v-22.5h18v22.5h-18zm18 0v-22.5h18v22.5h-18zm18 0v-22.5h18v22.5h-18zm18 0v-22.5h18v22.5h-18zm18 0v-22.5h18v22.5h-18zm18 0v-22.5h18v22.5h-18zm18 0v-22.5h18v22.5h-18zm18 0v-22.5h18v22.5h-18zm27 0v-22.5h18v22.5h-18zm18 0v-22.5h18v22.5h-18zm18 0v-22.5h18v22.5h-18zm18 0v-22.5h18v22.5h-18zm18 0v-22.5h18v22.5h-18zm18 0v-22.5h18v22.5h-18zm27 0v-22.5h18v22.5h-18zm18 0v-22.5h18v22.5h-18zm18 0v-22.5h18v22.5h-18zm18 0v-22.5h18v22.5h-18zm18 0v-22.5h18v22.5h-18zm-459 50v-22.5h18v22.5h-18zm18 0v-22.5h18v22.5h-18zm18 0v-22.5h18v22.5h-18zm18 0v-22.5h18v22.5h-18zm18 0v-22.5h18v22.5h-18zm18 0v-22.5h18v22.5h-18zm18 0v-22.5h18v22.5h-18zm18 0v-22.5h18v22.5h-18zm18 0v-22.5h18v22.5h-18zm18 0v-22.5h18v22.5h-18zm18 0v-22.5h18v22.5h-18zm27 0v-22.5h18v22.5h-18zm18 0v-22.5h18v22.5h-18zm18 0v-22.5h18v22.5h-18zm18 0v-22.5h18v22.5h-18zm18 0v-22.5h18v22.5h-18zm-279 50v-22.5h18v22.5h-18zm18 0v-22.5h18v22.5h-18zm27 0v-22.5h18v22.5h-18zm18 0v-22.5h18v22.5h-18zm18 0v-22.5h18v22.5h-18zm18 0v-22.5h18v22.5h-18zm18 0v-22.5h18v22.5h-18zm18 0v-22.5h18v22.5h-18zm18 0v-22.5h18v22.5h-18zm18 0v-22.5h18v22.5h-18zm18 0v-22.5h18v22.5h-18zm27 0v-22.5h18v22.5h-18zm18 0v-22.5h18v22.5h-18zm18 0v-22.5h18v22.5h-18zm18 0v-22.5h18v22.5h-18zm18 0v-22.5h18v22.5h-18zm27 0v-22.5h18v22.5h-18zm18 0v-22.5h18v22.5h-18zm18 0v-22.5h18v22.5h-18zm18 0v-22.5h18v22.5h-18zm18 0v-22.5h18v22.5h-18zm-387 50v-22.5h18v22.5h-18zm18 0v-22.5h18v22.5h-18zm18 0v-22.5h18v22.5h-18zm27 0v-22.5h18v22.5h-18zm18 0v-22.5h18v22.5h-18zm18 0v-22.5h18v22.5h-18zm18 0v-22.5h18v22.5h-18zm27 0v-22.5h18v22.5h-18zm18 0v-22.5h18v22.5h-18zm18 0v-22.5h18v22.5h-18zm18 0v-22.5h18v22.5h-18zm18 0v-22.5h18v22.5h-18zm18 0v-22.5h18v22.5h-18zm-234 50v-22.5h18v22.5h-18zm18 0v-22.5h18v22.5h-18zm18 0v-22.5h18v22.5h-18zm18 0v-22.5h18v22.5h-18zm18 0v-22.5h18v22.5h-18zm18 0v-22.5h18v22.5h-18zm18 0v-22.5h18v22.5h-18zm18 0v-22.5h18v22.5h-18zm27 0v-22.5h18v22.5h-18zm18 0v-22.5h18v22.5h-18zm18 0v-22.5h18v22.5h-18zm18 0v-22.5h18v22.5h-18zm18 0v-22.5h18v22.5h-18zm18 0v-22.5h18v22.5h-18zm18 0v-22.5h18v22.5h-18zm18 0v-22.5h18v22.5h-18zm27 0v-22.5h18v22.5h-18zm18 0v-22.5h18v22.5h-18zm18 0v-22.5h18v22.5h-18zm18 0v-22.5h18v22.5h-18zm18 0v-22.5h18v22.5h-18zm18 0v-22.5h18v22.5h-18zm-396 50v-22.5h18v22.5h-18zm18 0v-22.5h18v22.5h-18zm18 0v-22.5h18v22.5h-18zm18 0v-22.5h18v22.5h-18zm18 0v-22.5h18v22.5h-18zm27 0v-22.5h18v22.5h-18zm18 0v-22.5h18v22.5h-18zm18 0v-22.5h18v22.5h-18zm18 0v-22.5h18v22.5h-18zm18 0v-22.5h18v22.5h-18zm27 0v-22.5h18v22.5h-18zm18 0v-22.5h18v22.5h-18zm18 0v-22.5h18v22.5h-18zm18 0v-22.5h18v22.5h-18zm18 0v-22.5h18v22.5h-18zm27 0v-22.5h18v22.5h-18zm18 0v-22.5h18v22.5h-18zm18 0v-22.5h18v22.5h-18zm-333 50v-22.5h18v22.5h-18zm18 0v-22.5h18v22.5h-18zm18 0v-22.5h18v22.5h-18zm18 0v-22.5h18v22.5h-18zm18 0v-22.5h18v22.5h-18zm27 0v-22.5h18v22.5h-18zm18 0v-22.5h18v22.5h-18zm18 0v-22.5h18v22.5h-18zm18 0v-22.5h18v22.5h-18zm27 0v-22.5h18v22.5h-18zm18 0v-22.5h18v22.5h-18zm18 0v-22.5h18v22.5h-18zm18 0v-22.5h18v22.5h-18zm27 0v-22.5h18v22.5h-18zm18 0v-22.5h18v22.5h-18zm27 0v-22.5h18v22.5h-18zm18 0v-22.5h18v22.5h-18zm18 0v-22.5h18v22.5h-18zm27 0v-22.5h18v22.5h-18zm18 0v-22.5h18v22.5h-18zm18 0v-22.5h18v22.5h-18zm27 0v-22.5h18v22.5h-18zm18 0v-22.5h18v22.5h-18zm-450 50v-22.5h18v22.5h-18zm18 0v-22.5h18v22.5h-18zm18 0v-22.5h18v22.5h-18zm18 0v-22.5h18v22.5h-18zm18 0v-22.5h18v22.5h-18zm18 0v-22.5h18v22.5h-18zm18 0v-22.5h18v22.5h-18zm18 0v-22.5h18v22.5h-18zm18 0v-22.5h18v22.5h-18zm27 0v-22.5h18v22.5h-18zm18 0v-22.5h18v22.5h-18zm18 0v-22.5h18v22.5h-18zm18 0v-22.5h18v22.5h-18zm18 0v-22.5h18v22.5h-18zm18 0v-22.5h18v22.5h-18zm18 0v-22.5h18v22.5h-18zm27 0v-22.5h18v22.5h-18zm18 0v-22.5h18v22.5h-18zm18 0v-22.5h18v22.5h-18zm18 0v-22.5h18v22.5h-18z" fill="#EBEBEB" sketch:type="MSShapeGroup"/><path d="M943.75 106v-22.5h18v22.5h-18zm18 0v-22.5h18v22.5h-18zm18 0v-22.5h18v22.5h-18zm-36 50v-22.5h18v22.5h-18zm18 0v-22.5h18v22.5h-18zm18 0v-22.5h18v22.5h-18zm-36 50v-22.5h18v22.5h-18zm18 0v-22.5h18v22.5h-18zm18 0v-22.5h18v22.5h-18zm-36 50v-22.5h18v22.5h-18zm18 0v-22.5h18v22.5h-18zm18 0v-22.5h18v22.5h-18zm-36 50v-22.5h18v22.5h-18zm18 0v-22.5h18v22.5h-18zm18 0v-22.5h18v22.5h-18zm-36 50v-22.5h18v22.5h-18zm18 0v-22.5h18v22.5h-18zm18 0v-22.5h18v22.5h-18zm-36 50v-22.5h18v22.5h-18zm18 0v-22.5h18v22.5h-18zm18 0v-22.5h18v22.5h-18zm-36 50v-22.5h18v22.5h-18zm18 0v-22.5h18v22.5h-18zm18 0v-22.5h18v22.5h-18zm-36 50v-22.5h18v22.5h-18zm18 0v-22.5h18v22.5h-18zm18 0v-22.5h18v22.5h-18zm-36 50v-22.5h18v22.5h-18zm18 0v-22.5h18v22.5h-18zm18 0v-22.5h18v22.5h-18zm-36 50v-22.5h18v22.5h-18zm18 0v-22.5h18v22.5h-18zm18 0v-22.5h18v22.5h-18z" fill="#EBEBEB" sketch:type="MSShapeGroup"/><path d="M265.75 106v-22.5h18v22.5h-18zm18 0v-22.5h18v22.5h-18zm18 0v-22.5h18v22.5h-18zm18 0v-22.5h18v22.5h-18zm18 0v-22.5h18v22.5h-18zm-72 50v-22.5h18v22.5h-18zm18 0v-22.5h18v22.5h-18zm18 0v-22.5h18v22.5h-18zm18 0v-22.5h18v22.5h-18zm18 0v-22.5h18v22.5h-18zm-72 50v-22.5h18v22.5h-18zm18 0v-22.5h18v22.5h-18zm18 0v-22.5h18v22.5h-18zm18 0v-22.5h18v22.5h-18zm18 0v-22.5h18v22.5h-18zm-72 50v-22.5h18v22.5h-18zm18 0v-22.5h18v22.5h-18zm18 0v-22.5h18v22.5h-18zm18 0v-22.5h18v22.5h-18zm18 0v-22.5h18v22.5h-18zm-72 50v-22.5h18v22.5h-18zm18 0v-22.5h18v22.5h-18zm18 0v-22.5h18v22.5h-18zm18 0v-22.5h18v22.5h-18zm18 0v-22.5h18v22.5h-18zm-72 50v-22.5h18v22.5h-18zm18 0v-22.5h18v22.5h-18zm18 0v-22.5h18v22.5h-18zm18 0v-22.5h18v22.5h-18zm18 0v-22.5h18v22.5h-18zm-72 50v-22.5h18v22.5h-18zm18 0v-22.5h18v22.5h-18zm18 0v-22.5h18v22.5h-18zm18 0v-22.5h18v22.5h-18zm18 0v-22.5h18v22.5h-18zm-72 50v-22.5h18v22.5h-18zm18 0v-22.5h18v22.5h-18zm18 0v-22.5h18v22.5h-18zm18 0v-22.5h18v22.5h-18zm18 0v-22.5h18v22.5h-18zm-72 50v-22.5h18v22.5h-18zm18 0v-22.5h18v22.5h-18zm18 0v-22.5h18v22.5h-18zm18 0v-22.5h18v22.5h-18zm18 0v-22.5h18v22.5h-18zm-72 50v-22.5h18v22.5h-18zm18 0v-22.5h18v22.5h-18zm18 0v-22.5h18v22.5h-18zm18 0v-22.5h18v22.5h-18zm18 0v-22.5h18v22.5h-18zm-72 50v-22.5h18v22.5h-18zm18 0v-22.5h18v22.5h-18zm18 0v-22.5h18v22.5h-18zm18 0v-22.5h18v22.5h-18zm18 0v-22.5h18v22.5h-18z" fill="#EBEBEB" sketch:type="MSShapeGroup"/><path d="M282.75 36v-12.5h10v12.5h-10zm10 0v-12.5h10v12.5h-10zm10 0v-12.5h10v12.5h-10zm10 0v-12.5h10v12.5h-10zm15 0v-12.5h10v12.5h-10zm10 0v-12.5h10v12.5h-10zm10 0v-12.5h10v12.5h-10zm10 0v-12.5h10v12.5h-10zm10 0v-12.5h10v12.5h-10zm10 0v-12.5h10v12.5h-10zm10 0v-12.5h10v12.5h-10zm10 0v-12.5h10v12.5h-10zm10 0v-12.5h10v12.5h-10zM431.75 36v-12.5h10v12.5h-10zm10 0v-12.5h10v12.5h-10zm10 0v-12.5h10v12.5h-10zm10 0v-12.5h10v12.5h-10zm15 0v-12.5h10v12.5h-10zm10 0v-12.5h10v12.5h-10zm10 0v-12.5h10v12.5h-10zm10 0v-12.5h10v12.5h-10zm10 0v-12.5h10v12.5h-10zm10 0v-12.5h10v12.5h-10zm10 0v-12.5h10v12.5h-10zm10 0v-12.5h10v12.5h-10zm10 0v-12.5h10v12.5h-10z" fill="#C6C6C6" sketch:type="MSShapeGroup"/><path d="M19.5 38v-15h12v15h-12zm12 0v-15h12v15h-12zm12 0v-15h12v15h-12zm18 0v-15h12v15h-12zm12 0v-15h12v15h-12zm12 0v-15h12v15h-12zm12 0v-15h12v15h-12zm12 0v-15h12v15h-12zm12 0v-15h12v15h-12zm12 0v-15h12v15h-12zm12 0v-15h12v15h-12zm12 0v-15h12v15h-12zm12 0v-15h12v15h-12z" fill="#fff" sketch:type="MSShapeGroup"/><path d="M19.5 86v-15h12v15h-12zm12 0v-15h12v15h-12zm12 0v-15h12v15h-12zm12 0v-15h12v15h-12zm12 0v-15h12v15h-12zm12 0v-15h12v15h-12zm12 0v-15h12v15h-12zm-72 45v-15h12v15h-12zm12 0v-15h12v15h-12zm12 0v-15h12v15h-12zm12 0v-15h12v15h-12zm12 0v-15h12v15h-12zm12 0v-15h12v15h-12zm12 0v-15h12v15h-12zm-72 45v-15h12v15h-12zm12 0v-15h12v15h-12zm12 0v-15h12v15h-12zm12 0v-15h12v15h-12zm12 0v-15h12v15h-12zm12 0v-15h12v15h-12zm12 0v-15h12v15h-12zm12 0v-15h12v15h-12zM167.125 74v-8.75h7v8.75h-7zm7 0v-8.75h7v8.75h-7zm7 0v-8.75h7v8.75h-7zm7 0v-8.75h7v8.75h-7zm7 0v-8.75h7v8.75h-7zm7 0v-8.75h7v8.75h-7zm7 0v-8.75h7v8.75h-7zm-42 45v-8.75h7v8.75h-7zm7 0v-8.75h7v8.75h-7zm7 0v-8.75h7v8.75h-7zm7 0v-8.75h7v8.75h-7zm7 0v-8.75h7v8.75h-7zm7 0v-8.75h7v8.75h-7zm7 0v-8.75h7v8.75h-7zm-49 45v-8.75h7v8.75h-7zm7 0v-8.75h7v8.75h-7zm7 0v-8.75h7v8.75h-7zm7 0v-8.75h7v8.75h-7zm7 0v-8.75h7v8.75h-7zm7 0v-8.75h7v8.75h-7zm7 0v-8.75h7v8.75h-7zm7 0v-8.75h7v8.75h-7z" fill="#DFDFDF" sketch:type="MSShapeGroup"/><path d="M156.625 86v-8.75h7v8.75h-7zm7 0v-8.75h7v8.75h-7zm7 0v-8.75h7v8.75h-7zm7 0v-8.75h7v8.75h-7zm7 0v-8.75h7v8.75h-7zm7 0v-8.75h7v8.75h-7zm7 0v-8.75h7v8.75h-7zm10.5 0v-8.75h7v8.75h-7zm-38.5 45v-8.75h7v8.75h-7zm7 0v-8.75h7v8.75h-7zm7 0v-8.75h7v8.75h-7zm10.5 0v-8.75h7v8.75h-7zm7 0v-8.75h7v8.75h-7zm7 0v-8.75h7v8.75h-7zm-56 45v-8.75h7v8.75h-7zm7 0v-8.75h7v8.75h-7zm7 0v-8.75h7v8.75h-7zm10.5 0v-8.75h7v8.75h-7zm7 0v-8.75h7v8.75h-7zm7 0v-8.75h7v8.75h-7zm10.5 0v-8.75h7v8.75h-7zm7 0v-8.75h7v8.75h-7z" fill="#F3F3F3" sketch:type="MSShapeGroup"/></g></svg>