<?xml version="1.0" encoding="UTF-8" standalone="no"?>
<svg width="262px" height="358px" viewBox="0 0 262 358" version="1.1" xmlns="http://www.w3.org/2000/svg" xmlns:xlink="http://www.w3.org/1999/xlink" xmlns:sketch="http://www.bohemiancoding.com/sketch/ns">
    <title>Untitled 2</title>
    <description>Created with Sketch (http://www.bohemiancoding.com/sketch)</description>
    <defs></defs>
    <g id="Page-1" stroke="none" stroke-width="1" fill="none" fill-rule="evenodd" sketch:type="MSPage">
        <g id="BitcoinSign" sketch:type="MSLayerGroup" transform="translate(142.000000, 181.000000) rotate(8.000000) translate(-142.000000, -181.000000) translate(16.000000, 7.000000)" fill="#FFFFFF">
            <path d="M205.021,161.042 C223.652,151.559 235.309,134.858 232.586,107.035 C228.919,69.012 196.06,56.262 154.58,52.631 L154.572,-0.11 L122.433,-0.11 L122.424,51.244 C113.968,51.244 105.348,51.41 96.767,51.582 L96.76,-0.103 L64.65,-0.106 L64.644,52.622 C57.685,52.764 50.851,52.899 44.178,52.899 L44.178,52.743 L-0.152,52.725 L-0.146,87.007 C-0.146,87.007 23.588,86.561 23.197,86.994 C36.21,87.003 40.459,94.553 41.681,101.07 L41.691,161.153 L41.691,245.55 C41.118,249.64 38.707,256.175 29.608,256.187 C30.022,256.551 6.229,256.183 6.229,256.183 L-0.146,294.518 L41.671,294.518 C49.463,294.527 57.119,294.648 64.63,294.708 L64.658,348.046 L96.76,348.055 L96.751,295.276 C105.583,295.456 114.108,295.534 122.435,295.523 L122.426,348.055 L154.564,348.055 L154.582,294.806 C208.604,291.706 246.424,278.109 251.126,227.421 C254.916,186.612 235.692,168.396 205.021,161.042 L205.021,161.042 Z M97.535,89.321 C115.661,89.321 172.667,83.554 172.675,121.385 C172.667,157.654 115.679,153.417 97.535,153.417 L97.535,89.321 L97.535,89.321 Z M97.521,256.447 L97.535,185.775 C119.313,185.769 187.62,179.514 187.629,221.095 C187.638,260.971 119.313,256.431 97.521,256.447 L97.521,256.447 Z" id="Shape" sketch:type="MSShapeGroup"></path>
        </g>
    </g>
</svg>