<?xml version="1.0" encoding="utf-8"?>
<!-- Generator: Adobe Illustrator 17.0.0, SVG Export Plug-In . SVG Version: 6.00 Build 0)  -->
<!DOCTYPE svg PUBLIC "-//W3C//DTD SVG 1.1//EN" "http://www.w3.org/Graphics/SVG/1.1/DTD/svg11.dtd">
<svg version="1.1" id="Layer_1" xmlns="http://www.w3.org/2000/svg" xmlns:xlink="http://www.w3.org/1999/xlink" x="0px" y="0px"
	 width="792px" height="234.73px" viewBox="0 188.603 792 234.73" enable-background="new 0 188.603 792 234.73"
	 xml:space="preserve">
<g>
	<path fill="#FFFFFF" d="M786.532,395.613c0,12.426-10.061,22.487-22.505,22.487H27.544c-12.437,0-22.534-10.061-22.534-22.487
		V216.34c0-12.414,10.097-22.51,22.534-22.51h736.484c12.449,0,22.505,10.097,22.505,22.51L786.532,395.613L786.532,395.613z"/>
	<path d="M764.028,423.333H27.544c-15.3,0-27.755-12.426-27.755-27.72V216.346c0-15.294,12.455-27.743,27.755-27.743h736.484
		c15.277,0,27.755,12.443,27.755,27.743V395.62C791.795,410.908,779.316,423.333,764.028,423.333L764.028,423.333z"/>
	<path d="M786.532,395.613c0,12.426-10.061,22.487-22.505,22.487H27.544c-12.437,0-22.534-10.061-22.534-22.487V216.34
		c0-12.414,10.097-22.51,22.534-22.51h736.484c12.449,0,22.505,10.097,22.505,22.51L786.532,395.613L786.532,395.613z"/>
	<path fill="#FFFFFF" d="M176.628,304.733c-0.17-18.92,15.494-28.125,16.21-28.553c-8.87-12.93-22.616-14.696-27.45-14.837
		c-11.546-1.22-22.745,6.905-28.623,6.905c-5.996,0-15.054-6.788-24.816-6.594c-12.561,0.194-24.311,7.462-30.759,18.762
		c-13.3,23.027-3.379,56.866,9.363,75.481c6.371,9.123,13.822,19.295,23.578,18.938c9.533-0.381,13.1-6.078,24.611-6.078
		c11.405,0,14.755,6.078,24.693,5.843c10.237-0.147,16.685-9.152,22.833-18.351c7.369-10.431,10.325-20.739,10.443-21.267
		C196.469,334.905,176.833,327.402,176.628,304.733z"/>
	<path fill="#FFFFFF" d="M157.849,249.099c5.127-6.418,8.642-15.148,7.662-24.001c-7.427,0.329-16.708,5.133-22.059,11.411
		c-4.734,5.526-8.953,14.59-7.867,23.115C143.933,260.246,152.498,255.412,157.849,249.099z"/>
	<g>
		<path fill="#FFFFFF" d="M314.794,373.525h-13.329l-7.304-22.939h-25.379l-6.958,22.939h-12.977l25.15-78.115h15.529
			L314.794,373.525z M291.955,340.954l-6.6-20.398c-0.698-2.083-2.012-6.987-3.937-14.714h-0.235
			c-0.774,3.321-2.012,8.231-3.708,14.714l-6.494,20.398H291.955z"/>
		<path fill="#FFFFFF" d="M379.35,344.673c0,9.586-2.599,17.148-7.809,22.71c-4.658,4.946-10.454,7.421-17.359,7.421
			c-7.457,0-12.825-2.663-16.086-7.99v29.556h-12.514v-60.655c0-6.019-0.158-12.185-0.463-18.515h11.006l0.698,8.929h0.235
			c4.171-6.729,10.507-10.102,19.002-10.102c6.647,0,12.197,2.622,16.632,7.879C377.121,329.179,379.35,336.096,379.35,344.673z
			 M366.596,345.131c0-5.485-1.232-10.003-3.708-13.564c-2.705-3.702-6.342-5.556-10.894-5.556c-3.086,0-5.89,1.033-8.401,3.068
			c-2.511,2.053-4.154,4.74-4.922,8.061c-0.387,1.549-0.581,2.81-0.581,3.796v9.41c0,4.083,1.255,7.539,3.772,10.378
			c2.511,2.81,5.773,4.236,9.791,4.236c4.717,0,8.383-1.83,11.006-5.45C365.282,355.873,366.596,351.079,366.596,345.131z"/>
		<path fill="#FFFFFF" d="M444.136,344.673c0,9.586-2.605,17.148-7.809,22.71c-4.67,4.946-10.454,7.421-17.371,7.421
			c-7.457,0-12.825-2.663-16.081-7.99v29.556h-12.514v-60.655c0-6.019-0.158-12.185-0.463-18.515h11l0.704,8.929h0.235
			c4.165-6.729,10.501-10.102,19.002-10.102c6.641,0,12.191,2.622,16.638,7.879C441.901,329.179,444.136,336.096,444.136,344.673z
			 M431.376,345.131c0-5.485-1.238-10.003-3.714-13.564c-2.705-3.702-6.33-5.556-10.883-5.556c-3.086,0-5.896,1.033-8.413,3.068
			c-2.511,2.053-4.148,4.74-4.916,8.061c-0.381,1.549-0.598,2.81-0.598,3.796v9.41c0,4.083,1.261,7.539,3.772,10.378
			c2.511,2.81,5.767,4.236,9.803,4.236c4.717,0,8.389-1.83,11.006-5.45C430.062,355.873,431.376,351.079,431.376,345.131z"/>
		<path fill="#FFFFFF" d="M516.566,351.613c0,6.653-2.323,12.056-6.94,16.233c-5.086,4.553-12.179,6.841-21.278,6.841
			c-8.419,0-15.148-1.625-20.228-4.869l2.892-10.425c5.491,3.244,11.516,4.869,18.081,4.869c4.717,0,8.389-1.074,11.006-3.191
			c2.622-2.124,3.948-4.963,3.948-8.513c0-3.174-1.097-5.831-3.25-7.996c-2.165-2.153-5.749-4.177-10.777-6.013
			c-13.675-5.098-20.522-12.572-20.522-22.37c0-6.412,2.417-11.651,7.234-15.764c4.822-4.095,11.223-6.142,19.19-6.142
			c7.11,0,13.036,1.238,17.729,3.708l-3.133,10.19c-4.429-2.394-9.416-3.59-15.013-3.59c-4.412,0-7.879,1.085-10.361,3.244
			c-2.077,1.936-3.139,4.289-3.139,7.087c0,3.074,1.203,5.638,3.602,7.65c2.077,1.842,5.867,3.86,11.358,6.013
			c6.723,2.716,11.663,5.873,14.825,9.498C514.976,341.693,516.566,346.216,516.566,351.613z"/>
		<path fill="#FFFFFF" d="M558.049,326.592h-13.798v27.35c0,6.952,2.429,10.425,7.304,10.425c2.235,0,4.089-0.188,5.556-0.598
			l0.346,9.504c-2.464,0.921-5.708,1.39-9.721,1.39c-4.951,0-8.8-1.525-11.604-4.529c-2.787-3.015-4.171-8.073-4.171-15.183v-28.395
			h-8.207v-9.398h8.207V306.85l12.291-3.708v14.021h13.804v9.428h-0.007V326.592z"/>
		<path fill="#FFFFFF" d="M620.165,344.902c0,8.659-2.476,15.764-7.427,21.325c-5.174,5.72-12.056,8.577-20.627,8.577
			c-8.278,0-14.86-2.746-19.765-8.219c-4.91-5.491-7.363-12.39-7.363-20.733c0-8.73,2.546-15.881,7.591-21.437
			c5.051-5.556,11.874-8.348,20.451-8.348c8.26,0,14.901,2.757,19.935,8.231C617.778,329.602,620.165,336.471,620.165,344.902z
			 M607.188,345.189c0-5.163-1.103-9.586-3.338-13.294c-2.628-4.47-6.395-6.706-11.246-6.706c-5.016,0-8.87,2.235-11.475,6.706
			c-2.259,3.708-3.362,8.207-3.362,13.529c0,5.163,1.103,9.604,3.362,13.294c2.705,4.482,6.477,6.723,11.375,6.723
			c4.77,0,8.524-2.3,11.246-6.823C606.038,354.817,607.188,350.358,607.188,345.189z"/>
		<path fill="#FFFFFF" d="M660.857,328.205c-1.238-0.229-2.564-0.346-3.942-0.346c-4.406,0-7.809,1.643-10.202,4.993
			c-2.077,2.933-3.127,6.641-3.127,11.123v29.55h-12.514V334.94c0-6.477-0.123-12.402-0.364-17.729h10.889l0.458,10.777h0.358
			c1.326-3.702,3.409-6.694,6.248-8.923c2.798-2.024,5.796-3.027,9.046-3.027c1.156,0,2.2,0.094,3.127,0.229L660.857,328.205
			L660.857,328.205z"/>
		<path fill="#FFFFFF" d="M716.83,342.696c0,2.247-0.147,4.136-0.458,5.679h-37.535c0.129,5.567,1.959,9.827,5.444,12.76
			c3.168,2.617,7.257,3.937,12.279,3.937c5.562,0,10.63-0.868,15.195-2.663l1.959,8.683c-5.327,2.323-11.622,3.479-18.885,3.479
			c-8.73,0-15.588-2.57-20.58-7.697c-4.975-5.139-7.468-12.044-7.468-20.686c0-8.483,2.317-15.558,6.958-21.196
			c4.863-6.019,11.428-9.035,19.694-9.035c8.12,0,14.268,3.015,18.439,9.035C715.164,329.754,716.83,335.674,716.83,342.696z
			 M704.892,339.452c0.088-3.714-0.733-6.911-2.429-9.621c-2.165-3.497-5.497-5.233-9.967-5.233c-4.089,0-7.427,1.695-9.962,5.098
			c-2.077,2.71-3.309,5.972-3.702,9.727L704.892,339.452L704.892,339.452z"/>
	</g>
	<g>
		<path fill="#FFFFFF" d="M285.924,267.456h-6.559l-3.585-11.276h-12.473l-3.42,11.276h-6.377l12.361-38.397h7.633L285.924,267.456z
			 M274.701,251.446l-3.244-10.026c-0.34-1.027-0.968-3.42-1.936-7.234h-0.117c-0.399,1.649-0.968,4.042-1.825,7.234l-3.186,10.026
			H274.701z"/>
		<path fill="#FFFFFF" d="M316.835,239.765l-10.484,27.685h-5.984l-10.143-27.685h6.606l4.734,14.643
			c0.798,2.446,1.478,4.781,1.989,7.005h0.17c0.458-1.989,1.138-4.324,1.989-7.005l4.67-14.643L316.835,239.765L316.835,239.765z"/>
		<path fill="#FFFFFF" d="M339.152,267.456l-0.458-3.186h-0.17c-1.877,2.57-4.617,3.813-8.084,3.813
			c-4.957,0-8.489-3.473-8.489-8.149c0-6.835,5.925-10.366,16.18-10.366v-0.51c0-3.643-1.936-5.468-5.749-5.468
			c-2.74,0-5.133,0.686-7.228,2.053l-1.255-4.042c2.57-1.596,5.749-2.394,9.516-2.394c7.234,0,10.883,3.813,10.883,11.452v10.196
			c0,2.798,0.117,4.957,0.399,6.612L339.152,267.456L339.152,267.456z M338.295,253.663c-6.841,0-10.255,1.654-10.255,5.585
			c0,2.904,1.772,4.324,4.218,4.324c3.133,0,6.037-2.388,6.037-5.632L338.295,253.663L338.295,253.663z"/>
		<path fill="#FFFFFF" d="M357.99,235.213c-2.053,0-3.649-1.596-3.649-3.702s1.649-3.649,3.766-3.649
			c2.106,0,3.813,1.537,3.761,3.649C361.862,233.729,360.272,235.213,357.99,235.213z M361.175,267.456h-6.148v-27.691h6.148
			V267.456z"/>
		<path fill="#FFFFFF" d="M378.265,267.456h-6.148V227.07h6.148V267.456z"/>
		<path fill="#FFFFFF" d="M404.407,267.456l-0.458-3.186h-0.158c-1.877,2.57-4.617,3.813-8.09,3.813
			c-4.957,0-8.489-3.473-8.489-8.149c0-6.835,5.925-10.366,16.18-10.366v-0.51c0-3.643-1.936-5.468-5.755-5.468
			c-2.734,0-5.133,0.686-7.228,2.053l-1.255-4.048c2.564-1.596,5.749-2.394,9.516-2.394c7.222,0,10.877,3.813,10.877,11.452v10.196
			c0,2.798,0.123,4.957,0.387,6.612h-5.526L404.407,267.456L404.407,267.456z M403.55,253.663c-6.841,0-10.255,1.654-10.255,5.585
			c0,2.904,1.766,4.324,4.212,4.324c3.133,0,6.043-2.388,6.043-5.632V253.663z"/>
		<path fill="#FFFFFF" d="M434.462,268.084c-3.931,0-6.829-1.654-8.706-4.899h-0.123l-0.352,4.277h-5.245
			c0.158-2.218,0.217-4.734,0.217-7.462v-32.93h6.172v16.749h0.117c1.825-3.074,4.776-4.617,8.829-4.617
			c6.665,0,11.34,5.697,11.34,14.01C446.711,261.812,441.52,268.084,434.462,268.084z M433.212,244.036
			c-3.543,0-6.782,3.074-6.782,7.351v4.846c0,3.813,2.91,6.952,6.676,6.952c4.605,0,7.357-3.761,7.357-9.739
			C440.446,247.861,437.595,244.036,433.212,244.036z"/>
		<path fill="#FFFFFF" d="M461.953,267.456h-6.142V227.07h6.142V267.456z"/>
		<path fill="#FFFFFF" d="M495.44,255.089h-18.462c0.123,5.245,3.585,8.202,8.712,8.202c2.74,0,5.245-0.458,7.457-1.308l0.956,4.271
			c-2.611,1.138-5.691,1.713-9.281,1.713c-8.659,0-13.787-5.474-13.787-13.951c0-8.489,5.251-14.872,13.089-14.872
			c7.058,0,11.51,5.245,11.51,13.165C495.669,253.382,495.61,254.35,495.44,255.089z M489.802,250.707
			c0-4.277-2.165-7.292-6.101-7.292c-3.543,0-6.313,3.074-6.723,7.292H489.802z"/>
		<path fill="#FFFFFF" d="M532.729,268.084c-8.09,0-13.329-6.043-13.329-14.238c0-8.548,5.35-14.643,13.804-14.643
			c7.955,0,13.329,5.749,13.329,14.186C546.515,262.041,540.995,268.084,532.729,268.084z M532.963,243.696
			c-4.441,0-7.292,4.154-7.292,9.967c0,5.702,2.91,9.856,7.234,9.856s7.228-4.447,7.228-9.973
			C540.132,247.914,537.287,243.696,532.963,243.696z"/>
		<path fill="#FFFFFF" d="M579.591,267.456h-6.142v-15.899c0-4.893-1.877-7.351-5.585-7.351c-3.643,0-6.154,3.133-6.154,6.782
			v16.468h-6.148v-19.771c0-2.446-0.076-5.069-0.229-7.92h5.415l0.288,4.277h0.17c1.631-2.957,5.01-4.84,8.765-4.84
			c5.796,0,9.621,4.441,9.621,11.675L579.591,267.456L579.591,267.456z"/>
		<path fill="#FFFFFF" d="M619.837,244.382h-6.764v13.446c0,3.42,1.191,5.133,3.579,5.133c1.085,0,2.001-0.117,2.734-0.287
			l0.17,4.67c-1.197,0.458-2.798,0.686-4.776,0.686c-4.852,0-7.732-2.681-7.732-9.686v-13.963h-4.036v-4.617h4.036v-5.063
			l6.025-1.83v6.887h6.764V244.382z"/>
		<path fill="#FFFFFF" d="M652.414,267.456h-6.154v-15.781c0-4.957-1.877-7.462-5.585-7.462c-3.186,0-6.142,2.165-6.142,6.553
			v16.691h-6.16V227.07h6.16v16.626h0.123c1.924-3.015,4.729-4.5,8.313-4.5c5.867,0,9.44,4.553,9.44,11.792v16.468H652.414z"/>
		<path fill="#FFFFFF" d="M683.848,255.089h-18.456c0.117,5.245,3.567,8.202,8.694,8.202c2.757,0,5.257-0.458,7.462-1.308
			l0.962,4.271c-2.611,1.138-5.702,1.713-9.287,1.713c-8.671,0-13.793-5.474-13.793-13.951c0-8.489,5.251-14.872,13.089-14.872
			c7.063,0,11.516,5.245,11.516,13.165C684.077,253.382,684.024,254.35,683.848,255.089z M678.21,250.707
			c0-4.277-2.159-7.292-6.096-7.292c-3.538,0-6.318,3.074-6.723,7.292H678.21z"/>
	</g>
</g>
</svg>
