<svg xmlns="http://www.w3.org/2000/svg" width="792" height="234.73" viewBox="0 188.603 792 234.73" enable-background="new 0 188.603 792 234.73"><path fill="#fff" d="M786.532 395.613c0 12.426-10.061 22.487-22.505 22.487h-736.483c-12.437 0-22.534-10.061-22.534-22.487v-179.273c0-12.414 10.097-22.51 22.534-22.51h736.484c12.449 0 22.505 10.097 22.505 22.51l-.001 179.273z"/><path d="M764.028 423.333h-736.484c-15.3 0-27.755-12.426-27.755-27.72v-179.267c0-15.294 12.455-27.743 27.755-27.743h736.484c15.277 0 27.755 12.443 27.755 27.743v179.274c.012 15.288-12.467 27.713-27.755 27.713zM786.532 395.613c0 12.426-10.061 22.487-22.505 22.487h-736.483c-12.437 0-22.534-10.061-22.534-22.487v-179.273c0-12.414 10.097-22.51 22.534-22.51h736.484c12.449 0 22.505 10.097 22.505 22.51l-.001 179.273z"/><path fill="#fff" d="M176.628 304.733c-.17-18.92 15.494-28.125 16.21-28.553-8.87-12.93-22.616-14.696-27.45-14.837-11.546-1.22-22.745 6.905-28.623 6.905-5.996 0-15.054-6.788-24.816-6.594-12.561.194-24.311 7.462-30.759 18.762-13.3 23.027-3.379 56.866 9.363 75.481 6.371 9.123 13.822 19.295 23.578 18.938 9.533-.381 13.1-6.078 24.611-6.078 11.405 0 14.755 6.078 24.693 5.843 10.237-.147 16.685-9.152 22.833-18.351 7.369-10.431 10.325-20.739 10.443-21.267-.242-.077-19.878-7.58-20.083-30.249zM157.849 249.099c5.127-6.418 8.642-15.148 7.662-24.001-7.427.329-16.708 5.133-22.059 11.411-4.734 5.526-8.953 14.59-7.867 23.115 8.348.622 16.913-4.212 22.264-10.525z"/><g fill="#fff"><path d="M314.794 373.525h-13.329l-7.304-22.939h-25.379l-6.958 22.939h-12.977l25.15-78.115h15.529l25.268 78.115zm-22.839-32.571l-6.6-20.398c-.698-2.083-2.012-6.987-3.937-14.714h-.235c-.774 3.321-2.012 8.231-3.708 14.714l-6.494 20.398h20.974zM379.35 344.673c0 9.586-2.599 17.148-7.809 22.71-4.658 4.946-10.454 7.421-17.359 7.421-7.457 0-12.825-2.663-16.086-7.99v29.556h-12.514v-60.655c0-6.019-.158-12.185-.463-18.515h11.006l.698 8.929h.235c4.171-6.729 10.507-10.102 19.002-10.102 6.647 0 12.197 2.622 16.632 7.879 4.429 5.273 6.658 12.19 6.658 20.767zm-12.754.458c0-5.485-1.232-10.003-3.708-13.564-2.705-3.702-6.342-5.556-10.894-5.556-3.086 0-5.89 1.033-8.401 3.068-2.511 2.053-4.154 4.74-4.922 8.061-.387 1.549-.581 2.81-.581 3.796v9.41c0 4.083 1.255 7.539 3.772 10.378 2.511 2.81 5.773 4.236 9.791 4.236 4.717 0 8.383-1.83 11.006-5.45 2.623-3.637 3.937-8.431 3.937-14.379zM444.136 344.673c0 9.586-2.605 17.148-7.809 22.71-4.67 4.946-10.454 7.421-17.371 7.421-7.457 0-12.825-2.663-16.081-7.99v29.556h-12.514v-60.655c0-6.019-.158-12.185-.463-18.515h11l.704 8.929h.235c4.165-6.729 10.501-10.102 19.002-10.102 6.641 0 12.191 2.622 16.638 7.879 4.424 5.273 6.659 12.19 6.659 20.767zm-12.76.458c0-5.485-1.238-10.003-3.714-13.564-2.705-3.702-6.33-5.556-10.883-5.556-3.086 0-5.896 1.033-8.413 3.068-2.511 2.053-4.148 4.74-4.916 8.061-.381 1.549-.598 2.81-.598 3.796v9.41c0 4.083 1.261 7.539 3.772 10.378 2.511 2.81 5.767 4.236 9.803 4.236 4.717 0 8.389-1.83 11.006-5.45 2.629-3.637 3.943-8.431 3.943-14.379zM516.566 351.613c0 6.653-2.323 12.056-6.94 16.233-5.086 4.553-12.179 6.841-21.278 6.841-8.419 0-15.148-1.625-20.228-4.869l2.892-10.425c5.491 3.244 11.516 4.869 18.081 4.869 4.717 0 8.389-1.074 11.006-3.191 2.622-2.124 3.948-4.963 3.948-8.513 0-3.174-1.097-5.831-3.25-7.996-2.165-2.153-5.749-4.177-10.777-6.013-13.675-5.098-20.522-12.572-20.522-22.37 0-6.412 2.417-11.651 7.234-15.764 4.822-4.095 11.223-6.142 19.19-6.142 7.11 0 13.036 1.238 17.729 3.708l-3.133 10.19c-4.429-2.394-9.416-3.59-15.013-3.59-4.412 0-7.879 1.085-10.361 3.244-2.077 1.936-3.139 4.289-3.139 7.087 0 3.074 1.203 5.638 3.602 7.65 2.077 1.842 5.867 3.86 11.358 6.013 6.723 2.716 11.663 5.873 14.825 9.498 3.186 3.62 4.776 8.143 4.776 13.54zM558.049 326.592h-13.798v27.35c0 6.952 2.429 10.425 7.304 10.425 2.235 0 4.089-.188 5.556-.598l.346 9.504c-2.464.921-5.708 1.39-9.721 1.39-4.951 0-8.8-1.525-11.604-4.529-2.787-3.015-4.171-8.073-4.171-15.183v-28.395h-8.207v-9.398h8.207v-10.308l12.291-3.708v14.021h13.804v9.428h-.007v.001zM620.165 344.902c0 8.659-2.476 15.764-7.427 21.325-5.174 5.72-12.056 8.577-20.627 8.577-8.278 0-14.86-2.746-19.765-8.219-4.91-5.491-7.363-12.39-7.363-20.733 0-8.73 2.546-15.881 7.591-21.437 5.051-5.556 11.874-8.348 20.451-8.348 8.26 0 14.901 2.757 19.935 8.231 4.818 5.304 7.205 12.173 7.205 20.604zm-12.977.287c0-5.163-1.103-9.586-3.338-13.294-2.628-4.47-6.395-6.706-11.246-6.706-5.016 0-8.87 2.235-11.475 6.706-2.259 3.708-3.362 8.207-3.362 13.529 0 5.163 1.103 9.604 3.362 13.294 2.705 4.482 6.477 6.723 11.375 6.723 4.77 0 8.524-2.3 11.246-6.823 2.288-3.801 3.438-8.26 3.438-13.429zM660.857 328.205c-1.238-.229-2.564-.346-3.942-.346-4.406 0-7.809 1.643-10.202 4.993-2.077 2.933-3.127 6.641-3.127 11.123v29.55h-12.514v-38.585c0-6.477-.123-12.402-.364-17.729h10.889l.458 10.777h.358c1.326-3.702 3.409-6.694 6.248-8.923 2.798-2.024 5.796-3.027 9.046-3.027 1.156 0 2.2.094 3.127.229l.023 11.938zM716.83 342.696c0 2.247-.147 4.136-.458 5.679h-37.535c.129 5.567 1.959 9.827 5.444 12.76 3.168 2.617 7.257 3.937 12.279 3.937 5.562 0 10.63-.868 15.195-2.663l1.959 8.683c-5.327 2.323-11.622 3.479-18.885 3.479-8.73 0-15.588-2.57-20.58-7.697-4.975-5.139-7.468-12.044-7.468-20.686 0-8.483 2.317-15.558 6.958-21.196 4.863-6.019 11.428-9.035 19.694-9.035 8.12 0 14.268 3.015 18.439 9.035 3.292 4.762 4.958 10.682 4.958 17.704zm-11.938-3.244c.088-3.714-.733-6.911-2.429-9.621-2.165-3.497-5.497-5.233-9.967-5.233-4.089 0-7.427 1.695-9.962 5.098-2.077 2.71-3.309 5.972-3.702 9.727l26.06.029z"/></g><g fill="#fff"><path d="M285.924 267.456h-6.559l-3.585-11.276h-12.473l-3.42 11.276h-6.377l12.361-38.397h7.633l12.42 38.397zm-11.223-16.01l-3.244-10.026c-.34-1.027-.968-3.42-1.936-7.234h-.117c-.399 1.649-.968 4.042-1.825 7.234l-3.186 10.026h10.308zM316.835 239.765l-10.484 27.685h-5.984l-10.143-27.685h6.606l4.734 14.643c.798 2.446 1.478 4.781 1.989 7.005h.17c.458-1.989 1.138-4.324 1.989-7.005l4.67-14.643h6.453zM339.152 267.456l-.458-3.186h-.17c-1.877 2.57-4.617 3.813-8.084 3.813-4.957 0-8.489-3.473-8.489-8.149 0-6.835 5.925-10.366 16.18-10.366v-.51c0-3.643-1.936-5.468-5.749-5.468-2.74 0-5.133.686-7.228 2.053l-1.255-4.042c2.57-1.596 5.749-2.394 9.516-2.394 7.234 0 10.883 3.813 10.883 11.452v10.196c0 2.798.117 4.957.399 6.612l-5.545-.011zm-.857-13.793c-6.841 0-10.255 1.654-10.255 5.585 0 2.904 1.772 4.324 4.218 4.324 3.133 0 6.037-2.388 6.037-5.632v-4.277zM357.99 235.213c-2.053 0-3.649-1.596-3.649-3.702s1.649-3.649 3.766-3.649c2.106 0 3.813 1.537 3.761 3.649-.006 2.218-1.596 3.702-3.878 3.702zm3.185 32.243h-6.148v-27.691h6.148v27.691zM378.265 267.456h-6.148v-40.386h6.148v40.386zM404.407 267.456l-.458-3.186h-.158c-1.877 2.57-4.617 3.813-8.09 3.813-4.957 0-8.489-3.473-8.489-8.149 0-6.835 5.925-10.366 16.18-10.366v-.51c0-3.643-1.936-5.468-5.755-5.468-2.734 0-5.133.686-7.228 2.053l-1.255-4.048c2.564-1.596 5.749-2.394 9.516-2.394 7.222 0 10.877 3.813 10.877 11.452v10.196c0 2.798.123 4.957.387 6.612h-5.526l-.001-.005zm-.857-13.793c-6.841 0-10.255 1.654-10.255 5.585 0 2.904 1.766 4.324 4.212 4.324 3.133 0 6.043-2.388 6.043-5.632v-4.277zM434.462 268.084c-3.931 0-6.829-1.654-8.706-4.899h-.123l-.352 4.277h-5.245c.158-2.218.217-4.734.217-7.462v-32.93h6.172v16.749h.117c1.825-3.074 4.776-4.617 8.829-4.617 6.665 0 11.34 5.697 11.34 14.01 0 8.6-5.191 14.872-12.249 14.872zm-1.25-24.048c-3.543 0-6.782 3.074-6.782 7.351v4.846c0 3.813 2.91 6.952 6.676 6.952 4.605 0 7.357-3.761 7.357-9.739-.017-5.585-2.868-9.41-7.251-9.41zM461.953 267.456h-6.142v-40.386h6.142v40.386zM495.44 255.089h-18.462c.123 5.245 3.585 8.202 8.712 8.202 2.74 0 5.245-.458 7.457-1.308l.956 4.271c-2.611 1.138-5.691 1.713-9.281 1.713-8.659 0-13.787-5.474-13.787-13.951 0-8.489 5.251-14.872 13.089-14.872 7.058 0 11.51 5.245 11.51 13.165.035 1.073-.024 2.041-.194 2.78zm-5.638-4.382c0-4.277-2.165-7.292-6.101-7.292-3.543 0-6.313 3.074-6.723 7.292h12.824zM532.729 268.084c-8.09 0-13.329-6.043-13.329-14.238 0-8.548 5.35-14.643 13.804-14.643 7.955 0 13.329 5.749 13.329 14.186-.018 8.652-5.538 14.695-13.804 14.695zm.234-24.388c-4.441 0-7.292 4.154-7.292 9.967 0 5.702 2.91 9.856 7.234 9.856s7.228-4.447 7.228-9.973c-.001-5.632-2.846-9.85-7.17-9.85zM579.591 267.456h-6.142v-15.899c0-4.893-1.877-7.351-5.585-7.351-3.643 0-6.154 3.133-6.154 6.782v16.468h-6.148v-19.771c0-2.446-.076-5.069-.229-7.92h5.415l.288 4.277h.17c1.631-2.957 5.01-4.84 8.765-4.84 5.796 0 9.621 4.441 9.621 11.675l-.001 16.579zM619.837 244.382h-6.764v13.446c0 3.42 1.191 5.133 3.579 5.133 1.085 0 2.001-.117 2.734-.287l.17 4.67c-1.197.458-2.798.686-4.776.686-4.852 0-7.732-2.681-7.732-9.686v-13.963h-4.036v-4.617h4.036v-5.063l6.025-1.83v6.887h6.764v4.624zM652.414 267.456h-6.154v-15.781c0-4.957-1.877-7.462-5.585-7.462-3.186 0-6.142 2.165-6.142 6.553v16.691h-6.16v-40.387h6.16v16.626h.123c1.924-3.015 4.729-4.5 8.313-4.5 5.867 0 9.44 4.553 9.44 11.792v16.468h.005zM683.848 255.089h-18.456c.117 5.245 3.567 8.202 8.694 8.202 2.757 0 5.257-.458 7.462-1.308l.962 4.271c-2.611 1.138-5.702 1.713-9.287 1.713-8.671 0-13.793-5.474-13.793-13.951 0-8.489 5.251-14.872 13.089-14.872 7.063 0 11.516 5.245 11.516 13.165.042 1.073-.011 2.041-.187 2.78zm-5.638-4.382c0-4.277-2.159-7.292-6.096-7.292-3.538 0-6.318 3.074-6.723 7.292h12.819z"/></g></svg>