<?xml version="1.0" encoding="UTF-8" standalone="no"?>
<svg width="102px" height="103px" viewBox="0 0 102 103" version="1.1" xmlns="http://www.w3.org/2000/svg" xmlns:xlink="http://www.w3.org/1999/xlink" xmlns:sketch="http://www.bohemiancoding.com/sketch/ns">
    <title>audit</title>
    <description>Created with Sketch (http://www.bohemiancoding.com/sketch)</description>
    <defs></defs>
    <g id="Page-1" stroke="none" stroke-width="1" fill="none" fill-rule="evenodd" sketch:type="MSPage">
        <g id="landing-page" sketch:type="MSArtboardGroup" transform="translate(-1266.000000, -6081.000000)" stroke="#F6CA0F" stroke-width="3">
            <g id="Group" sketch:type="MSLayerGroup" transform="translate(1267.000000, 6083.000000)">
                <path d="M76.0868966,35.18 L76.0868966,41.1110345 C80.4351724,43.2851724 78.2610345,54.1541379 71.7386207,54.1541379 C71.7386207,67.1972414 56.5213793,75.8937931 50.0006897,75.8937931 C43.4765517,75.8937931 28.2610345,67.1972414 28.2610345,54.1541379 C21.7386207,54.1541379 19.5644828,43.2851724 23.9127586,41.1110345 L23.9127586,35.18" id="Stroke-2706" sketch:type="MSShapeGroup"></path>
                <path d="M48.2758621,65 L51.7241379,65" id="Stroke-2707" stroke-linecap="round" stroke-linejoin="round" sketch:type="MSShapeGroup"></path>
                <path d="M50,36.7625862 C26.0862069,36.7625862 6.52068966,32.4160345 6.52068966,32.4160345 L26.0862069,21.5453448 L36.9568966,-0.194310345 L50,8.50224138" id="Stroke-2708" stroke-linecap="round" stroke-linejoin="round" sketch:type="MSShapeGroup"></path>
                <path d="M50,36.7625862 C73.9137931,36.7625862 93.4775862,32.4160345 93.4775862,32.4160345 L73.9137931,21.5453448 L63.0431034,-0.194310345 L50,8.50224138" id="Stroke-2709" stroke-linecap="round" stroke-linejoin="round" sketch:type="MSShapeGroup"></path>
                <path d="M44.8275862,41.1858621 C44.8275862,43.5875862 43.7810345,44.6341379 41.3793103,44.6341379 L37.9310345,44.6341379 C35.5293103,44.6341379 34.4827586,43.5875862 34.4827586,41.1858621 L34.4827586,37.7375862 L44.8275862,37.7375862 L44.8275862,41.1858621 L44.8275862,41.1858621 Z" id="Stroke-2710" stroke-linecap="round" stroke-linejoin="round" sketch:type="MSShapeGroup"></path>
                <path d="M65.5172414,41.1858621 C65.5172414,43.5875862 64.4706897,44.6341379 62.0689655,44.6341379 L58.6206897,44.6341379 C56.2189655,44.6341379 55.1724138,43.5875862 55.1724138,41.1858621 L55.1724138,37.7375862 L65.5172414,37.7375862 L65.5172414,41.1858621 L65.5172414,41.1858621 Z" id="Stroke-2711" stroke-linecap="round" stroke-linejoin="round" sketch:type="MSShapeGroup"></path>
                <path d="M17.3912069,99.8065517 L23.9136207,86.7634483 L10.3446552,89.4617241 C10.3446552,89.4617241 13.792931,65.847931 13.792931,54.9789655 L18.9653448,54.9789655 C18.9653448,78.8927586 60.3808621,99.8065517 67.3912069,99.8065517 L17.3912069,99.8065517 L17.3912069,99.8065517 Z" id="Stroke-2712" stroke-linecap="round" stroke-linejoin="round" sketch:type="MSShapeGroup"></path>
                <path d="M12.7189655,70.4962069 C8.37241379,72.6703448 2.27373675e-13,75.4737931 2.27373675e-13,85.6548276 L2.27373675e-13,99.8065517 L50,99.8065517" id="Stroke-2713" sketch:type="MSShapeGroup"></path>
                <path d="M87.2794828,70.4962069 C91.6277586,72.6703448 100.000172,75.8306897 100.000172,86.0134483 L100.000172,99.8065517 L50.0001724,99.8065517" id="Stroke-2714" sketch:type="MSShapeGroup"></path>
                <path d="M82.6087931,99.8065517 L76.0863793,86.7634483 L89.6553448,89.4617241 C89.6553448,89.4617241 86.207069,65.847931 86.207069,54.9789655 L81.0346552,54.9789655 C78.8605172,72.3703448 58.9174138,93.6289655 51.907069,93.6289655" id="Stroke-2715" stroke-linejoin="round" sketch:type="MSShapeGroup"></path>
                <path d="M26.0868966,21.5460345 C26.0868966,21.5460345 36.9558621,25.8925862 50.0006897,25.8925862 C63.0437931,25.8925862 73.9127586,21.5460345 73.9127586,21.5460345" id="Stroke-2716" stroke-linejoin="round" sketch:type="MSShapeGroup"></path>
            </g>
        </g>
    </g>
</svg>