<svg width="1520" height="173" viewBox="0 0 1520 173" xmlns="http://www.w3.org/2000/svg" xmlns:sketch="http://www.bohemiancoding.com/sketch/ns"><title>available-coins</title><desc>Created with Sketch.</desc><g sketch:type="MSLayerGroup" fill="none"><g sketch:type="MSShapeGroup" transform="translate(-667 -2492) translate(669 2494)"><path d="M169 84.872c0 46.675-37.833 84.509-84.5 84.509s-84.5-37.834-84.5-84.509c0-46.669 37.833-84.509 84.5-84.509s84.5 37.84 84.5 84.509z" id="Stroke-4869" stroke="#FC9D1C" stroke-width="3" stroke-linecap="round" stroke-linejoin="round"/><rect id="Rectangle-8" fill="#FC9D1C" x="77.469" y="35.474" width="10" height="18" rx="2"/><rect id="Rectangle-8-copy" fill="#FC9D1C" x="77.469" y="116.474" width="10" height="18" rx="2"/><path d="M116 103.4c0-9.6-7.08-18.36-15.6-19.68 7.32-1.56 14.04-8.28 14.04-18.36 0-12-8.52-20.4-22.44-20.4h-28.44c-3.96 0-7.2 3.24-7.2 7.2v65.64c0 3.96 3.24 7.2 7.2 7.2h29.28c14.64 0 23.16-8.76 23.16-21.6zm-11.88-36.6c0 7.32-4.8 12.84-13.8 12.84h-24v-25.8h24c9 0 13.8 5.76 13.8 12.96zm1.56 35.52c0 8.52-5.52 13.8-14.88 13.8h-24.48v-27.6h24.48c9.84 0 14.88 6.48 14.88 13.8z" fill="#FC9D1C"/></g><g id="Group-copy" transform="translate(520 2)" sketch:type="MSShapeGroup"><path d="M169 84.872c0 46.675-37.833 84.509-84.5 84.509s-84.5-37.834-84.5-84.509c0-46.669 37.833-84.509 84.5-84.509s84.5 37.84 84.5 84.509z" id="Stroke-4869" stroke="#FFCA50" stroke-width="3" stroke-linecap="round" stroke-linejoin="round"/><rect fill="#FFCA50" x="47" y="85" width="30" height="10" rx="2"/><path d="M124.76 85.04c0-22.68-16.2-40.08-41.04-40.08h-20.16c-3.96 0-7.2 3.24-7.2 7.2v65.64c0 3.96 3.24 7.2 7.2 7.2h20.16c24.84 0 41.04-17.16 41.04-39.96zm-10.32 0c0 17.16-11.28 31.08-30.72 31.08h-17.4v-62.28h17.4c19.8 0 30.72 13.92 30.72 31.2z" fill="#FFCA50"/></g><g sketch:type="MSShapeGroup"><path d="M863.5 171c-46.664 0-84.5-37.862-84.5-84.571 0-46.704 37.836-84.571 84.5-84.571 46.673 0 84.5 37.868 84.5 84.571 0 46.71-37.827 84.571-84.5 84.571z" id="Stroke-4847" stroke="#2C944B" stroke-width="3"/><path d="M801.865 85.121h19.298l46.596 55.452 70.905-92.786-12.313-17.797-58.808 79.359-30.118-35.583h-20.249l-15.311 11.356z" fill="#2C944B"/></g><g sketch:type="MSShapeGroup"><path d="M1122.5 171c-46.664 0-84.5-37.83-84.5-84.5 0-46.664 37.836-84.5 84.5-84.5 46.673 0 84.5 37.836 84.5 84.5 0 46.67-37.827 84.5-84.5 84.5z" stroke="#EBEBEB" stroke-width="3"/><g transform="translate(1069.688 38.969)"><path d="M29.201 64.321s-20.088 20.971-8.563 32.874c11.525 11.903 30.503-16.161 30.503-16.161l-21.94-16.713z" fill="#EC8017"/><path d="M33.545 67.457s-13.969 15.846-5.831 22.597c8.138 6.751 22.81-13.373 22.81-13.373l-16.979-9.224z" fill="#EEBB18"/><path d="M25.448 59.254l21.406-37.967s14.051-23.816 45.035-19.735c8.455 28.952-3.416 42.889-3.416 42.889l-30.953 36.618s-2.926 3.975-7.429 1.267-20.529-13.545-23.985-16.759c-3.456-3.214-.659-6.313-.659-6.313z" stroke="#5B6971" stroke-width="2" fill="#DCF2F9"/><circle stroke="#5B6971" stroke-width="2" fill="#fff" cx="68.656" cy="31.688" r="10.563"/><path d="M36.615 39.307s-17.665-6.69-35.102 17.121c17.129-3.951 23.706 3.2 23.706 3.2l11.396-20.321z" fill="#5B6971"/><path d="M72.385 63.924s10.506 20.305-3.975 39.605c-2.232-20.003-12.079-22.183-12.079-22.183l16.054-17.422z" fill="#5B6971"/></g></g><g transform="translate(1254 2)" sketch:type="MSShapeGroup"><path d="M218 84.509c0 46.675-37.833 84.509-84.5 84.509s-84.5-37.834-84.5-84.509c0-46.669 37.833-84.509 84.5-84.509s84.5 37.84 84.5 84.509z" id="Stroke-4869" stroke="#D4D4D4" stroke-width="3" stroke-linecap="round" stroke-linejoin="round"/><g transform="translate(101 45)" fill="#000"><rect x=".469" y=".474" width="10" height="80" rx="40"/><path d="M71.6 24.08c0-13.08-9-24.12-25.08-24.12h-24.96c-3.96 0-7.2 3.24-7.2 7.2v68.64c0 2.76 2.16 4.92 4.92 4.92 2.88 0 5.04-2.16 5.04-4.92v-27.6h22.2c15.84 0 25.08-11.04 25.08-24.12zm-10.32 0c0 9-6.48 15.24-15.96 15.24h-21v-30.48h21c9.48 0 15.96 6.24 15.96 15.24z"/></g><rect opacity=".95" fill="#FC9D1C" y="45" width="266" height="80" rx="50"/><path d="M42.352 97.432c4.248 0 7.128-2.016 9.144-4.752l-2.556-1.404c-1.368 2.052-3.852 3.492-6.588 3.492-5.256 0-9.252-4.068-9.252-9.756 0-5.724 3.996-9.756 9.252-9.756 2.736 0 5.22 1.476 6.588 3.492l2.52-1.404c-1.908-2.7-4.86-4.752-9.108-4.752-6.912 0-12.348 5.04-12.348 12.42s5.436 12.42 12.348 12.42zm20.448 0c5.292 0 8.604-4.104 8.604-9.144s-3.312-9.108-8.604-9.108-8.604 4.068-8.604 9.108c0 5.04 3.312 9.144 8.604 9.144zm0-2.412c-3.708 0-5.796-3.168-5.796-6.732 0-3.528 2.088-6.696 5.796-6.696s5.76 3.168 5.76 6.696c0 3.564-2.052 6.732-5.76 6.732zm36.684 1.98v-12.564c0-3.492-1.692-5.256-4.86-5.256-2.52 0-4.86 1.656-5.832 3.24-.504-1.8-2.016-3.24-4.68-3.24-2.556 0-4.896 1.836-5.616 2.952v-2.52h-2.7v17.388h2.7v-12.708c.936-1.404 2.808-2.7 4.572-2.7 2.268 0 3.204 1.404 3.204 3.6v11.808h2.7v-12.744c.9-1.368 2.808-2.664 4.608-2.664 2.232 0 3.204 1.404 3.204 3.6v11.808h2.7zm6.732-19.872c1.008 0 1.836-.792 1.836-1.8s-.828-1.836-1.836-1.836c-.972 0-1.8.828-1.8 1.836s.828 1.8 1.8 1.8zm1.368 19.872v-17.388h-2.7v17.388h2.7zm19.836 0v-12.204c0-3.78-1.908-5.616-5.544-5.616-2.592 0-4.968 1.512-6.192 2.952v-2.52h-2.7v17.388h2.7v-12.708c1.008-1.404 3.024-2.7 5.148-2.7 2.34 0 3.888.972 3.888 4.032v11.376h2.7zm12.384 7.056c4.248 0 8.28-1.8 8.28-7.56v-16.884h-2.7v2.628c-1.404-1.908-3.492-3.06-5.832-3.06-4.572 0-7.74 3.456-7.74 9.036 0 5.616 3.204 9 7.74 9 2.448 0 4.572-1.332 5.832-3.096v2.484c0 3.816-2.7 5.22-5.58 5.22-2.484 0-4.212-.648-5.652-2.376l-1.368 2.016c2.052 2.016 4.068 2.592 7.02 2.592zm.396-9.216c-3.492 0-5.58-2.808-5.58-6.624 0-3.852 2.088-6.624 5.58-6.624 2.16 0 4.248 1.296 5.184 2.808v7.596c-.936 1.512-3.024 2.844-5.184 2.844zm28.08 2.592c4.5 0 6.84-2.34 6.84-5.256 0-6.768-10.764-4.248-10.764-8.064 0-1.548 1.476-2.736 3.852-2.736 2.232 0 4.14.936 5.184 2.196l1.26-1.872c-1.404-1.404-3.492-2.52-6.444-2.52-4.14 0-6.48 2.304-6.48 5.004 0 6.444 10.764 3.852 10.764 8.064 0 1.728-1.44 2.988-4.104 2.988-2.376 0-4.572-1.152-5.724-2.484l-1.404 1.944c1.764 1.872 4.176 2.736 7.02 2.736zm18.828 0c5.292 0 8.604-4.104 8.604-9.144s-3.312-9.108-8.604-9.108-8.604 4.068-8.604 9.108c0 5.04 3.312 9.144 8.604 9.144zm0-2.412c-3.708 0-5.796-3.168-5.796-6.732 0-3.528 2.088-6.696 5.796-6.696s5.76 3.168 5.76 6.696c0 3.564-2.052 6.732-5.76 6.732zm20.592 2.412c5.292 0 8.604-4.104 8.604-9.144s-3.312-9.108-8.604-9.108-8.604 4.068-8.604 9.108c0 5.04 3.312 9.144 8.604 9.144zm0-2.412c-3.708 0-5.796-3.168-5.796-6.732 0-3.528 2.088-6.696 5.796-6.696s5.76 3.168 5.76 6.696c0 3.564-2.052 6.732-5.76 6.732zm27.432 1.98v-12.204c0-3.78-1.908-5.616-5.544-5.616-2.592 0-4.968 1.512-6.192 2.952v-2.52h-2.7v17.388h2.7v-12.708c1.008-1.404 3.024-2.7 5.148-2.7 2.34 0 3.888.972 3.888 4.032v11.376h2.7z" fill="#fff"/></g><g sketch:type="MSShapeGroup"><path d="M430 86.509c0 46.675-37.833 84.509-84.5 84.509s-84.5-37.834-84.5-84.509c0-46.669 37.833-84.509 84.5-84.509s84.5 37.84 84.5 84.509z" stroke="#9B9B9B" stroke-width="3" stroke-linecap="round" stroke-linejoin="round"/><g fill="#9B9B9B"><path d="M370.92 118.12h-33.6l10-67.08c0-2.64-2.16-4.8-4.8-4.8-3 0-5.16 2.16-5.16 4.8l-10 68.76c0 3.96 3.24 7.2 7.2 7.2h36.36c2.4 0 4.32-1.92 4.32-4.56 0-2.4-1.92-4.32-4.32-4.32z"/><path d="M356.469 81.473c0-1.104-.873-1.781-1.943-1.514l-36.114 9.029c-1.073.268-1.943 1.373-1.943 2.485v6.001c0 1.104.873 1.781 1.943 1.514l36.114-9.029c1.073-.268 1.943-1.373 1.943-2.485v-6.001z"/></g></g></g></svg>