<svg width="1248" height="452" viewBox="0 0 1248 452" xmlns="http://www.w3.org/2000/svg" xmlns:sketch="http://www.bohemiancoding.com/sketch/ns"><title>devices</title><g sketch:type="MSLayerGroup" stroke="#20D1CF" stroke-width="3" fill="none"><g sketch:type="MSShapeGroup"><path d="M1056 413h-290v9h-121v-9h-290v17c0 9.388 21.646 17 48 17h605c26.354 0 48-7.612 48-17v-17z"/><path d="M1032 413v-363c0-26.35-21.658-48-48-48h-557c-26.342 0-48 21.65-48 48v363"/><path d="M1004.258 402.519h-596v-366h596v366z"/></g><g id="Group" sketch:type="MSShapeGroup"><path d="M1246 428c0 12.069-8.934 22-20 22h-95c-11.066 0-20-9.931-20-22v-212c0-12.069 8.934-22 20-22h95c11.066 0 20 9.931 20 22v212z"/><path d="M1111 228h135"/><path d="M1111 409h135"/><path d="M1166 210h24"/><path d="M1178 440c-6.072 0-11-4.928-11-11s4.928-11 11-11 11 4.928 11 11-4.928 11-11 11z"/></g><g sketch:type="MSShapeGroup"><path d="M287 414c0 19.784-14.574 36-32 36h-221c-17.426 0-32-16.216-32-36v-346c0-19.784 14.574-36 32-36h221c17.426 0 32 16.216 32 36v346z"/><path d="M3 398h282m-282-317h282"/><path d="M144 52c-3.864 0-7 3.136-7 7s3.136 7 7 7 7-3.136 7-7-3.136-7-7-7"/><path d="M144 439c-8.504 0-15-6.496-15-14 0-8.504 6.496-15 15-15 7.504 0 14 6.496 14 15 0 7.504-6.496 14-14 14z"/></g></g></svg>