<?xml version="1.0" encoding="UTF-8" standalone="no"?>
<svg width="1248px" height="452px" viewBox="0 0 1248 452" version="1.1" xmlns="http://www.w3.org/2000/svg" xmlns:xlink="http://www.w3.org/1999/xlink" xmlns:sketch="http://www.bohemiancoding.com/sketch/ns">
    <title>devices</title>
    <description>Created with Sketch (http://www.bohemiancoding.com/sketch)</description>
    <defs></defs>
    <g id="Page-1" stroke="none" stroke-width="1" fill="none" fill-rule="evenodd" sketch:type="MSPage">
        <g id="landing-page" sketch:type="MSArtboardGroup" transform="translate(-567.000000, -2896.000000)" stroke="#20D1CF" stroke-width="3">
            <g id="Stroke-6420-+-Stroke-6421-+-Stroke-6422-+-Group-+-Group" sketch:type="MSLayerGroup" transform="translate(569.000000, 2898.000000)">
                <g id="Stroke-6420-+-Stroke-6421-+-Stroke-6422" transform="translate(353.258426, -0.481123)" sketch:type="MSShapeGroup">
                    <path d="M700.741574,411.481123 L410.741574,411.481123 L410.741574,420.481123 L289.741574,420.481123 L289.741574,411.481123 L-0.258425817,411.481123 L-0.258425817,428.481123 C-0.258425817,437.869373 21.3879707,445.481123 47.7415742,445.481123 L652.741574,445.481123 C679.095178,445.481123 700.741574,437.869373 700.741574,428.481123 L700.741574,411.481123 L700.741574,411.481123 Z" id="Stroke-6420" stroke-linecap="round" stroke-linejoin="round"></path>
                    <path d="M676.741574,411.481123 L676.741574,48.4811231 C676.741574,22.1311525 655.083741,0.481123116 628.741574,0.481123116 L71.7415742,0.481123116 C45.3994075,0.481123116 23.7415742,22.1311525 23.7415742,48.4811231 L23.7415742,411.481123" id="Stroke-6421" stroke-linecap="round" stroke-linejoin="round"></path>
                    <path d="M649,401 L53,401 L53,35 L649,35 L649,401 Z" id="Stroke-6422"></path>
                </g>
                <g id="Group" transform="translate(1109.401817, 191.621655)" stroke-linecap="round" sketch:type="MSShapeGroup">
                    <path d="M134.598183,234.378345 C134.598183,246.44731 125.664359,256.378345 114.598183,256.378345 L19.5981827,256.378345 C8.53200627,256.378345 -0.401817255,246.44731 -0.401817255,234.378345 L-0.401817255,22.3783447 C-0.401817255,10.3093792 8.53200627,0.3783447 19.5981827,0.3783447 L114.598183,0.3783447 C125.664359,0.3783447 134.598183,10.3093792 134.598183,22.3783447 L134.598183,234.378345 L134.598183,234.378345 Z" id="Stroke-6501"></path>
                    <path d="M-0.401817255,34.3783447 L134.598183,34.3783447" id="Stroke-6502"></path>
                    <path d="M-0.401817255,215.378345 L134.598183,215.378345" id="Stroke-6503"></path>
                    <path d="M54.5981827,16.3783447 L78.5981827,16.3783447" id="Stroke-6504"></path>
                    <path d="M66.5981827,246.378345 C60.5261827,246.378345 55.5981827,241.450345 55.5981827,235.378345 C55.5981827,229.306345 60.5261827,224.378345 66.5981827,224.378345 C72.6701827,224.378345 77.5981827,229.306345 77.5981827,235.378345 C77.5981827,241.450345 72.6701827,246.378345 66.5981827,246.378345 Z" id="Stroke-6505"></path>
                </g>
                <g id="Group" transform="translate(-0.384920, 30.000000)" sketch:type="MSShapeGroup">
                    <path d="M285.38492,382 C285.38492,401.784483 270.811056,418 253.38492,418 L32.3849198,418 C14.9587835,418 0.384919815,401.784483 0.384919815,382 L0.384919815,36 C0.384919815,16.2155172 14.9587835,0 32.3849198,0 L253.38492,0 C270.811056,0 285.38492,16.2155172 285.38492,36 L285.38492,382 L285.38492,382 Z" id="Stroke-6522" stroke-linecap="round"></path>
                    <path d="M1.38491981,366 L283.38492,366 M1.38491981,49 L283.38492,49" id="Line" stroke-linecap="square"></path>
                    <path d="M142.38492,20 C138.52092,20 135.38492,23.136 135.38492,27 C135.38492,30.864 138.52092,34 142.38492,34 C146.24892,34 149.38492,30.864 149.38492,27 C149.38492,23.136 146.24892,20 142.38492,20" id="Fill-6524"></path>
                    <path d="M142.38492,407 C133.88092,407 127.38492,400.504 127.38492,393 C127.38492,384.496 133.88092,378 142.38492,378 C149.88892,378 156.38492,384.496 156.38492,393 C156.38492,400.504 149.88892,407 142.38492,407 Z" id="Stroke-6525" stroke-linecap="round"></path>
                </g>
            </g>
        </g>
    </g>
</svg>