<?xml version="1.0" encoding="UTF-8" standalone="no"?>
<svg width="801px" height="184px" viewBox="0 0 801 184" version="1.1" xmlns="http://www.w3.org/2000/svg" xmlns:xlink="http://www.w3.org/1999/xlink" xmlns:sketch="http://www.bohemiancoding.com/sketch/ns">
    <title>logo</title>
    <description>Created with Sketch (http://www.bohemiancoding.com/sketch)</description>
    <defs></defs>
    <g id="Page-1" stroke="none" stroke-width="1" fill="none" fill-rule="evenodd" sketch:type="MSPage">
        <g id="landing-page" sketch:type="MSArtboardGroup" transform="translate(-800.000000, -251.000000)" fill="#FFFFFF">
            <g id="logo" sketch:type="MSLayerGroup" transform="translate(801.000000, 39.000000)">
                <path d="M48.6734538,378.166796 C49.0513224,378.142024 49.4274242,378.116564 49.8017734,378.090402 C79.6401653,376.141077 106.451474,362.4958 106.451474,331.95637 C106.451474,316.794951 97.154004,302.716491 77.6941832,299.467615 C97.3702242,292.969864 109.478557,281.057321 109.478557,262.430435 C109.478557,246.762423 99.0554965,234.467647 72.9618045,231.356018 L72.9618045,231.356018 L75.2163973,218.400495 C75.8315597,214.865599 73.4195311,212 69.8319417,212 L58.6979354,212 C55.1090203,212 51.6997667,214.872353 51.0857795,218.400495 L48.9452208,230.700746 C38.2341968,230.904262 25.8898647,231.350056 13.909215,231.674413 C11.098352,231.891005 10.233471,232.54078 9.80103057,235.13988 L7.85504849,246.402649 C7.42260803,249.001749 7.85504849,249.651524 10.6659115,249.434933 L21.6931433,249.434933 L0.0711201656,375.707894 C-0.361320297,378.306994 0.0711201656,378.956769 2.88198317,378.956769 L18.4498398,378.956769 C20.4748597,378.956769 22.4608561,378.950254 24.4089571,378.936094 L22.7155084,388.667125 C22.1003459,392.202021 24.5123745,395.06762 28.0999639,395.06762 L39.2339702,395.06762 C42.8228854,395.06762 46.2321389,392.195267 46.8461261,388.667125 L48.6734515,378.166801 Z M51.5315352,310.730384 C71.6400167,310.730384 81.5861474,318.960868 81.5861474,332.822737 C81.5861474,359.680108 59.0992433,361.846025 37.2609999,361.846025 L26.6662086,361.846025 L35.9636786,310.730384 L51.5315352,310.730384 Z M54.5586184,248.568566 C70.3426953,248.568566 83.9645699,251.167666 83.9645699,266.112494 C83.9645699,286.472113 65.8020705,292.753273 47.2071306,292.753273 L38.9907618,292.753273 L46.7746901,248.568566 L54.5586184,248.568566 Z M205.48034,271.743878 C202.669477,271.743878 201.804596,272.393653 201.372155,274.992753 L199.858614,282.573463 C194.453108,275.642528 184.723198,269.361369 170.668883,269.361369 C129.587039,269.361369 113.802962,308.781058 113.802962,341.702997 C113.802962,369.210143 127.424836,381.555869 149.4793,381.555869 C163.533615,381.555869 175.425728,375.707894 183.858317,364.011942 C183.425876,374.624935 187.31784,381.555869 200.723495,381.555869 C209.372304,381.555869 218.021113,377.007444 224.50772,372.242426 C226.669923,370.509693 226.886143,369.643326 225.588821,367.260817 L223.642839,363.79535 C222.345518,361.412841 221.480637,361.19625 218.885994,362.279208 C216.723792,363.362167 214.77781,364.011942 213.048048,364.011942 C209.588524,364.011942 207.858762,362.279208 208.723643,357.947374 L223.426619,274.992753 C223.85906,272.393653 223.426619,271.743878 220.615756,271.743878 L205.48034,271.743878 Z M159.425431,362.928983 C143.425133,362.928983 138.235848,354.048724 138.235848,338.670713 C138.235848,317.661318 145.371116,287.771663 172.831085,287.771663 C188.182721,287.771663 194.885549,299.034432 195.101769,299.251024 L187.750281,339.53708 C185.155638,355.131682 170.668883,362.928983 159.425431,362.928983 Z M254.129892,217.379361 C251.319029,217.379361 250.454148,218.029136 250.021708,220.628237 L248.075725,231.674413 C247.643285,234.273514 248.075725,234.923289 250.886588,234.706697 L260.184058,234.706697 L238.129595,361.19625 C235.967392,373.97516 240.291797,381.772461 254.346112,381.772461 C263.427362,381.772461 272.508612,376.790852 277.914117,372.459018 C280.07632,370.726284 280.29254,369.859918 278.995218,367.477409 L277.265457,364.011942 C276.184355,361.629433 275.319475,361.412841 272.724832,362.4958 C270.346409,363.578758 268.400427,364.228533 266.238225,364.228533 C262.778701,364.228533 261.6976,362.062616 262.562481,357.514191 L286.995367,220.628237 C287.427808,218.029136 286.995367,217.379361 284.184504,217.379361 L254.129892,217.379361 Z M378.888965,271.743878 C376.078102,271.743878 375.213221,272.393653 374.780781,274.992753 L373.267239,282.573463 C367.861734,275.642528 358.131823,269.361369 344.077508,269.361369 C302.995664,269.361369 287.211587,308.781058 287.211587,341.702997 C287.211587,369.210143 300.833462,381.555869 322.887925,381.555869 C336.94224,381.555869 348.834353,375.707894 357.266942,364.011942 C356.834502,374.624935 360.726466,381.555869 374.13212,381.555869 C382.78093,381.555869 391.429739,377.007444 397.916346,372.242426 C400.078548,370.509693 400.294768,369.643326 398.997447,367.260817 L397.051465,363.79535 C395.754143,361.412841 394.889262,361.19625 392.29462,362.279208 C390.132417,363.362167 388.186435,364.011942 386.456673,364.011942 C382.99715,364.011942 381.267388,362.279208 382.132269,357.947374 L396.835245,274.992753 C397.267685,272.393653 396.835245,271.743878 394.024382,271.743878 L378.888965,271.743878 Z M332.834056,362.928983 C316.833759,362.928983 311.644473,354.048724 311.644473,338.670713 C311.644473,317.661318 318.779741,287.771663 346.23971,287.771663 C361.591347,287.771663 368.294174,299.034432 368.510394,299.251024 L361.158906,339.53708 C358.564264,355.131682 344.077508,362.928983 332.834056,362.928983 Z M409.376018,375.707894 C408.943577,378.306994 409.376018,378.956769 412.186881,378.956769 L429.268279,378.956769 C432.079142,378.956769 432.944023,378.306994 433.376464,375.707894 L444.619916,310.946975 C446.565898,299.251024 459.106671,289.93758 473.593427,289.93758 C484.620658,289.93758 488.080182,295.135781 488.080182,303.799449 C488.080182,307.264916 487.431521,311.59675 486.566641,316.145176 L477.269171,361.19625 C474.674528,373.97516 479.431373,381.772461 493.485688,381.772461 C502.566938,381.772461 511.648187,376.790852 517.053693,372.459018 C519.215895,370.726284 519.432116,369.859918 518.134794,367.477409 L516.405032,364.011942 C515.323931,361.629433 514.45905,361.412841 511.864408,362.4958 C509.485985,363.578758 507.540003,364.228533 505.377801,364.228533 C501.918277,364.228533 501.269616,362.062616 502.134497,357.514191 L512.080628,310.080609 C512.945509,306.181958 513.81039,299.684207 513.81039,296.435331 C513.81039,279.107995 502.783158,269.361369 484.836879,269.361369 C472.512325,269.361369 458.890451,272.610244 446.349677,287.555072 L448.29566,274.992753 C448.7281,272.393653 448.29566,271.743878 445.484797,271.743878 L418.241047,271.743878 C415.430184,271.743878 414.781524,272.393653 414.132863,274.992753 L412.403101,286.03893 C411.970661,288.63803 412.403101,289.287805 415.213964,289.071214 L424.511434,289.071214 L409.376018,375.707894 Z M602.244464,306.39855 C602.244464,309.214242 602.893125,309.864017 605.487768,309.864017 L617.16366,309.864017 C619.758303,309.864017 620.623184,309.214242 620.839404,306.39855 C622.569166,285.822338 612.839256,269.361369 586.244167,269.361369 C545.162323,269.361369 526.351163,304.016041 526.351163,337.154571 C526.351163,363.145575 539.324377,381.555869 567.865447,381.555869 C583.649524,381.555869 597.271399,376.790852 608.298631,368.993551 C610.677053,367.477409 610.893273,366.611042 609.379732,364.228533 L605.920208,357.297599 C604.622887,354.91509 603.541786,354.698499 601.379583,355.998049 C591.865893,361.412841 585.379286,363.362167 576.946697,363.362167 C557.486876,363.362167 551.43271,351.882807 551.43271,336.504796 C551.43271,315.278809 558.351757,287.988255 583.649524,287.988255 C595.325417,287.988255 602.893125,292.969864 602.244464,306.39855 Z M702.138211,368.993551 C704.300413,367.260817 704.516634,366.39445 703.003092,364.011942 L699.327348,357.297599 C698.030027,354.91509 697.165146,354.698499 694.786723,355.998049 C687.219015,360.546475 679.651307,363.362167 668.624075,363.362167 C651.758897,363.362167 644.62363,352.965765 644.62363,339.320488 C644.62363,337.587754 644.62363,336.288204 644.83985,334.555471 C649.164254,334.988654 653.9211,335.421837 658.677945,335.421837 C684.624372,335.421837 712.733002,326.541578 712.949223,298.168065 C712.949223,281.707096 701.921991,269.361369 679.218867,269.361369 C638.785683,269.361369 619.542083,305.748775 619.542083,338.887305 C619.542083,364.228533 631.650416,381.555869 662.353689,381.555869 C676.624224,381.555869 691.110979,377.007444 702.138211,368.993551 Z M674.245801,287.988255 C682.24595,287.988255 688.083896,291.670314 688.083896,299.251024 C688.083896,313.979259 670.570057,319.394052 654.78598,319.394052 C651.542677,319.394052 648.731814,318.960868 646.569612,318.527685 C649.164254,302.283307 658.461724,287.988255 674.245801,287.988255 Z M751.003983,365.311492 C735.652347,365.311492 731.327942,359.896699 730.246841,350.799848 C729.814401,347.984156 729.16574,347.334381 726.354877,347.334381 L714.246544,347.334381 C711.651901,347.334381 711.003241,347.984156 711.003241,350.799848 C711.219461,373.325385 727.435978,381.555869 749.274221,381.555869 C775.436869,381.555869 794.46425,369.859918 794.46425,345.818239 C794.46425,325.458619 778.463953,319.394052 764.193417,314.412443 C752.949965,310.513792 744.301156,307.264916 744.301156,298.81784 C744.301156,289.287805 752.517525,286.03893 762.031215,286.03893 C776.08553,286.03893 780.409935,291.670314 780.626155,300.11739 C780.626155,302.933082 781.274816,303.582858 784.085679,303.582858 L796.410232,303.582858 C799.221095,303.582858 799.869756,302.933082 799.869756,300.11739 C800.950857,282.356871 789.491185,269.361369 764.193417,269.361369 C739.760531,269.361369 721.381812,281.707096 721.381812,304.232633 C721.381812,326.324986 737.598329,330.873412 751.652644,335.421837 C762.896096,339.103896 770.896245,342.13618 770.896245,351.233031 C770.896245,362.712392 760.733894,365.311492 751.003983,365.311492 Z" id="Balances" sketch:type="MSShapeGroup"></path>
            </g>
        </g>
    </g>
</svg>