<svg width="801" height="184" viewBox="0 0 801 184" xmlns="http://www.w3.org/2000/svg" xmlns:sketch="http://www.bohemiancoding.com/sketch/ns"><title>logo</title><path d="M49.673 166.167l1.128-.076c29.838-1.949 56.65-15.595 56.65-46.134 0-15.161-9.297-29.24-28.757-32.489 19.676-6.498 31.784-18.41 31.784-37.037 0-15.668-10.423-27.963-36.517-31.074l2.255-12.956c.615-3.535-1.797-6.4-5.384-6.4h-11.134c-3.589 0-6.998 2.872-7.612 6.4l-2.141 12.3c-10.711.204-23.055.649-35.036.974-2.811.217-3.676.866-4.108 3.465l-1.946 11.263c-.432 2.599 0 3.249 2.811 3.032h11.027l-21.622 126.273c-.432 2.599 0 3.249 2.811 3.249h15.568c2.025 0 4.011-.007 5.959-.021l-1.693 9.731c-.615 3.535 1.797 6.4 5.384 6.4h11.134c3.589 0 6.998-2.872 7.612-6.4l1.827-10.5zm2.858-67.436c20.108 0 30.055 8.23 30.055 22.092 0 26.857-22.487 29.023-44.325 29.023h-10.595l9.297-51.116h15.568zm3.027-62.162c15.784 0 29.406 2.599 29.406 17.544 0 20.36-18.162 26.641-36.757 26.641h-8.216l7.784-44.185h7.784zm150.922 23.175c-2.811 0-3.676.65-4.108 3.249l-1.514 7.581c-5.406-6.931-15.135-13.212-29.19-13.212-41.082 0-56.866 39.42-56.866 72.342 0 27.507 13.622 39.853 35.676 39.853 14.054 0 25.946-5.848 34.379-17.544-.432 10.613 3.46 17.544 16.865 17.544 8.649 0 17.298-4.548 23.784-9.313 2.162-1.733 2.378-2.599 1.081-4.982l-1.946-3.465c-1.297-2.383-2.162-2.599-4.757-1.516-2.162 1.083-4.108 1.733-5.838 1.733-3.46 0-5.189-1.733-4.324-6.065l14.703-82.955c.432-2.599 0-3.249-2.811-3.249h-15.135zm-46.055 91.185c-16 0-21.19-8.88-21.19-24.258 0-21.009 7.135-50.899 34.595-50.899 15.352 0 22.054 11.263 22.271 11.479l-7.351 40.286c-2.595 15.595-17.081 23.392-28.325 23.392zm94.704-145.55c-2.811 0-3.676.65-4.108 3.249l-1.946 11.046c-.432 2.599 0 3.249 2.811 3.032h9.297l-22.054 126.49c-2.162 12.779 2.162 20.576 16.217 20.576 9.081 0 18.163-4.982 23.568-9.313 2.162-1.733 2.378-2.599 1.081-4.982l-1.73-3.465c-1.081-2.383-1.946-2.599-4.541-1.516-2.378 1.083-4.324 1.733-6.487 1.733-3.46 0-4.541-2.166-3.676-6.714l24.433-136.886c.432-2.599 0-3.249-2.811-3.249h-30.055zm124.759 54.365c-2.811 0-3.676.65-4.108 3.249l-1.514 7.581c-5.406-6.931-15.135-13.212-29.19-13.212-41.082 0-56.866 39.42-56.866 72.342 0 27.507 13.622 39.853 35.676 39.853 14.054 0 25.946-5.848 34.379-17.544-.432 10.613 3.46 17.544 16.865 17.544 8.649 0 17.298-4.548 23.784-9.313 2.162-1.733 2.378-2.599 1.081-4.982l-1.946-3.465c-1.297-2.383-2.162-2.599-4.757-1.516-2.162 1.083-4.108 1.733-5.838 1.733-3.46 0-5.189-1.733-4.324-6.065l14.703-82.955c.432-2.599 0-3.249-2.811-3.249h-15.135zm-46.055 91.185c-16 0-21.19-8.88-21.19-24.258 0-21.009 7.135-50.899 34.595-50.899 15.352 0 22.054 11.263 22.271 11.479l-7.351 40.286c-2.595 15.595-17.081 23.392-28.325 23.392zm76.542 12.779c-.432 2.599 0 3.249 2.811 3.249h17.081c2.811 0 3.676-.65 4.108-3.249l11.243-64.761c1.946-11.696 14.487-21.009 28.974-21.009 11.027 0 14.487 5.198 14.487 13.862 0 3.465-.649 7.797-1.514 12.346l-9.297 45.051c-2.595 12.779 2.162 20.576 16.217 20.576 9.081 0 18.162-4.982 23.568-9.313 2.162-1.733 2.378-2.599 1.081-4.982l-1.73-3.465c-1.081-2.383-1.946-2.599-4.541-1.516-2.378 1.083-4.324 1.733-6.487 1.733-3.46 0-4.108-2.166-3.243-6.714l9.946-47.434c.865-3.899 1.73-10.396 1.73-13.645 0-17.327-11.027-27.074-28.974-27.074-12.325 0-25.946 3.249-38.487 18.194l1.946-12.562c.432-2.599 0-3.249-2.811-3.249h-27.244c-2.811 0-3.46.65-4.108 3.249l-1.73 11.046c-.432 2.599 0 3.249 2.811 3.032h9.297l-15.135 86.637zm192.868-69.309c0 2.816.649 3.465 3.243 3.465h11.676c2.595 0 3.46-.65 3.676-3.465 1.73-20.576-8-37.037-34.595-37.037-41.082 0-59.893 34.655-59.893 67.793 0 25.991 12.973 44.401 41.514 44.401 15.784 0 29.406-4.765 40.433-12.562 2.378-1.516 2.595-2.383 1.081-4.765l-3.46-6.931c-1.297-2.383-2.378-2.599-4.541-1.3-9.514 5.415-16 7.364-24.433 7.364-19.46 0-25.514-11.479-25.514-26.857 0-21.226 6.919-48.517 32.217-48.517 11.676 0 19.244 4.982 18.595 18.41zm99.894 62.595c2.162-1.733 2.378-2.599.865-4.982l-3.676-6.714c-1.297-2.383-2.162-2.599-4.541-1.3-7.568 4.548-15.135 7.364-26.163 7.364-16.865 0-24-10.396-24-24.042 0-1.733 0-3.032.216-4.765 4.324.433 9.081.866 13.838.866 25.946 0 54.055-8.88 54.271-37.254 0-16.461-11.027-28.807-33.73-28.807-40.433 0-59.677 36.387-59.677 69.526 0 25.341 12.108 42.669 42.812 42.669 14.271 0 28.757-4.548 39.785-12.562zm-27.892-81.005c8 0 13.838 3.682 13.838 11.263 0 14.728-17.514 20.143-33.298 20.143-3.243 0-6.054-.433-8.216-.866 2.595-16.244 11.892-30.539 27.676-30.539zm76.758 77.323c-15.352 0-19.676-5.415-20.757-14.512-.432-2.816-1.081-3.465-3.892-3.465h-12.108c-2.595 0-3.243.65-3.243 3.465.216 22.526 16.433 30.756 38.271 30.756 26.163 0 45.19-11.696 45.19-35.738 0-20.36-16-26.424-30.271-31.406-11.243-3.899-19.892-7.148-19.892-15.595 0-9.53 8.216-12.779 17.73-12.779 14.054 0 18.379 5.631 18.595 14.078 0 2.816.649 3.465 3.46 3.465h12.325c2.811 0 3.46-.65 3.46-3.465 1.081-17.761-10.379-30.756-35.676-30.756-24.433 0-42.812 12.346-42.812 34.871 0 22.092 16.217 26.641 30.271 31.189 11.243 3.682 19.244 6.714 19.244 15.811 0 11.479-10.162 14.078-19.892 14.078z" sketch:type="MSShapeGroup" fill="#fff"/></svg>