<svg width="103" height="104" viewBox="0 0 103 104" xmlns="http://www.w3.org/2000/svg" xmlns:sketch="http://www.bohemiancoding.com/sketch/ns"><title>love</title><path d="M101 52.315c0 27.89-22.384 50.5-50 50.5s-50-22.61-50-50.5c0-27.893 22.384-50.5 50-50.5s50 22.607 50 50.5zm-17.241 3.482c0 18.189-14.75 33.844-32.759 33.844s-32.759-15.655-32.759-33.844m3.449-12.189c0-4.85 4.943-8.858 9.745-8.858 4.803 0 9.221 4.009 9.221 8.858m39.654 0c0-4.85-4.943-8.858-9.745-8.858-4.803 0-9.221 4.009-9.221 8.858" sketch:type="MSShapeGroup" stroke="#F5CA0F" stroke-width="3" stroke-linecap="round" stroke-linejoin="round" fill="none"/></svg>