<svg width="120" height="104" viewBox="0 0 120 104" xmlns="http://www.w3.org/2000/svg" xmlns:sketch="http://www.bohemiancoding.com/sketch/ns"><title>oink</title><g sketch:type="MSLayerGroup" stroke-linecap="round" stroke="#F6CA0F" stroke-width="3" fill="none"><path d="M57.544 21.949c9.065-.593 18.861 2.508 26.253 8.013" sketch:type="MSShapeGroup"/><path d="M118.127 39.977c0 5.581-4.473 10.016-10.097 10.016" sketch:type="MSShapeGroup"/><path d="M59.563 9.929c-4.33 0-8.504.088-12.496.98-4.903-8.588-15.842-11.532-24.425-6.606 4.637 2.66 7.948 7.288 8.73 12.764-10.663 6.408-18.563 16.901-20.275 28.92h-10.097v20.032h14.136c7.179 16.025 24.13 24.038 44.427 24.038 26.717 0 48.377-17.894 48.377-40.216 0-22.315-21.66-39.911-48.377-39.911z" sketch:type="MSShapeGroup"/><path d="M41 87.653v14.423" sketch:type="MSShapeGroup"/><path d="M77 87.136v14.94" sketch:type="MSShapeGroup"/><path d="M35.33 41.98c0 2.212-1.809 4.006-4.039 4.006-2.229 0-4.039-1.795-4.039-4.006 0-2.212 1.809-4.006 4.039-4.006 2.229 0 4.039 1.795 4.039 4.006z" sketch:type="MSShapeGroup"/></g></svg>