<svg width="85" height="103" viewBox="0 0 85 103" xmlns="http://www.w3.org/2000/svg" xmlns:sketch="http://www.bohemiancoding.com/sketch/ns"><title>shield</title><g sketch:type="MSShapeGroup" stroke="#F6CA0F" stroke-width="3" stroke-linecap="round" stroke-linejoin="round" fill="none"><path d="M42.5 1.807c-5.194 6.352-15.441 10.345-24.208 10.345-7.674 0-12.243-1.859-17.292-6.897v62.069s4.217 24.066 41.5 34.483c37.283-10.417 41.5-34.483 41.5-34.483v-62.069c-5.056 5.038-9.619 6.897-17.292 6.897-8.767 0-19.081-3.993-24.208-10.345z"/><path d="M42 1.807v100"/><path d="M1 50h83"/><path d="M11 11.446v38.636"/><path d="M21 11.954v38.128"/><path d="M32 9.19v40.893"/><path d="M52 50.082v48.164"/><path d="M63 50.082v42.686"/><path d="M73 50.082v34.672"/></g></svg>