<svg width="144" height="166" viewBox="0 0 144 166" xmlns="http://www.w3.org/2000/svg" xmlns:sketch="http://www.bohemiancoding.com/sketch/ns"><title>top</title><path d="M134.363 109.826c-14.467-7.045-28.958-13.424-34.37-23.94-8.18-15.883-6.191-42.938-3.227-65.162 1.231-9.231 4.549-22.941-4.214-20.359-4.699 3.987-7.53 17.272-9.479 23.531-7.86 25.199-17.97 49.539-36.555 57.105-7.496 3.054-15.271 3.326-26.421 3.713-6.498.222-17.108.611-19.281 5.178 37.598 18.654 112.9 28.108 142.275 27.975-.077-3.449-3.775-5.629-8.727-8.041zm-134.228-16.733c.299 3.667 5.266 6.535 8.953 8.708 12.128 7.158 26.586 15.439 32.256 26.476 2.708 5.278 4.234 12.97 6.309 20.143 1.672 5.772 3.293 15.494 11.903 16.837 7.101 1.107 14.005-7.611 18.22-12.882 5.255-6.575 9.728-13.337 15.236-18.012 7.621-6.472 20.519-8.383 31.697-9.197 3.096-.226 14.789.545 17.6-3.625-1.166-.012-95.752-.878-142.174-28.448z" sketch:type="MSShapeGroup" fill="#fff"/></svg>