<?xml version="1.0" encoding="UTF-8" standalone="no"?>
<svg width="144px" height="166px" viewBox="0 0 144 166" version="1.1" xmlns="http://www.w3.org/2000/svg" xmlns:xlink="http://www.w3.org/1999/xlink" xmlns:sketch="http://www.bohemiancoding.com/sketch/ns">
    <title>top</title>
    <description>Created with Sketch (http://www.bohemiancoding.com/sketch)</description>
    <defs></defs>
    <g id="Page-1" stroke="none" stroke-width="1" fill="none" fill-rule="evenodd" sketch:type="MSPage">
        <g id="landing-page" sketch:type="MSArtboardGroup" transform="translate(-1124.000000, -54.000000)" fill="#FFFFFF">
            <g id="logo" sketch:type="MSLayerGroup" transform="translate(801.000000, 39.000000)">
                <path d="M461.789769,112.192712 C446.17201,108.310787 430.669113,105.085391 423.186875,95.9244057 C411.880062,82.0890104 408.197272,55.2089162 406.472534,32.8511751 C405.756436,23.5649665 406.149483,9.46302436 398.114467,13.8118537 C394.347324,18.690199 394.34194,32.2751475 393.737115,38.8028637 C391.290895,65.0890413 386.46486,91.0031266 369.858204,102.271442 C363.160263,106.81884 355.61162,108.702558 344.784001,111.400227 C338.473723,112.969097 328.17555,115.557644 327,120.477134 C367.661452,130.902875 443.291465,124.484282 472,118.242791 C471.206728,114.885015 467.136276,113.521869 461.789769,112.192712 L461.789769,112.192712 Z M327,123.750656 C328.054983,127.275406 333.511422,129.047697 337.569603,130.407115 C350.92314,134.885621 366.789226,139.978929 374.632407,149.595818 C378.379665,154.195121 381.472725,161.403279 384.995327,167.987621 C387.831381,173.286465 391.440251,182.459829 400.142515,181.98205 C407.318918,181.587206 412.259547,171.62235 415.286109,165.589709 C419.058528,158.064232 422.027578,150.518924 426.443412,144.799994 C432.55225,136.883279 444.771725,132.330853 455.537228,129.208159 C458.518859,128.342747 470.118284,126.664209 472,122 C470.856952,122.230776 378.14782,141.062497 327,123.750656 L327,123.750656 Z" id="Shape" sketch:type="MSShapeGroup" transform="translate(399.500000, 97.500000) rotate(12.000000) translate(-399.500000, -97.500000) "></path>
            </g>
        </g>
    </g>
</svg>