<svg width="40" height="33" viewBox="0 0 40 33" xmlns="http://www.w3.org/2000/svg" xmlns:sketch="http://www.bohemiancoding.com/sketch/ns"><title>Fill 1</title><path d="M0 28.393c.643.075 1.297.113 1.96.113 3.85 0 7.394-1.293 10.206-3.461-3.596-.065-6.631-2.403-7.677-5.615.502.094 1.017.145 1.546.145.75 0 1.476-.099 2.165-.284-3.76-.743-6.592-4.01-6.592-7.928l.001-.102c1.108.606 2.375.969 3.722 1.011-2.205-1.45-3.656-3.924-3.656-6.729 0-1.482.405-2.87 1.113-4.065 4.053 4.891 10.109 8.11 16.939 8.447-.14-.592-.213-1.209-.213-1.842 0-4.465 3.68-8.085 8.218-8.085 2.364 0 4.499.982 5.999 2.553 1.872-.363 3.631-1.036 5.219-1.962-.614 1.888-1.917 3.472-3.613 4.473 1.662-.195 3.246-.63 4.72-1.273-1.102 1.621-2.495 3.045-4.101 4.185.016.347.024.695.024 1.046 0 10.684-8.266 23.003-23.382 23.003-4.641 0-8.961-1.338-12.598-3.632z" sketch:type="MSShapeGroup" fill="#fff"/></svg>