<?xml version="1.0" encoding="UTF-8" standalone="no"?>
<svg width="40px" height="33px" viewBox="0 0 40 33" version="1.1" xmlns="http://www.w3.org/2000/svg" xmlns:xlink="http://www.w3.org/1999/xlink" xmlns:sketch="http://www.bohemiancoding.com/sketch/ns">
    <title>Fill 1</title>
    <description>Created with Sketch (http://www.bohemiancoding.com/sketch)</description>
    <defs></defs>
    <g id="Page-1" stroke="none" stroke-width="1" fill="none" fill-rule="evenodd" sketch:type="MSPage">
        <g id="landing-page" sketch:type="MSArtboardGroup" transform="translate(-32.000000, -40.000000)" fill="#FFFFFF">
            <g id="twitter" sketch:type="MSLayerGroup" transform="translate(32.000000, 34.000000)">
                <path d="M0,34.3933694 C0.642930403,34.468036 1.29714286,34.5062342 1.96043956,34.5062342 C5.81069597,34.5062342 9.35428571,33.2136937 12.1668864,31.0453333 C8.57069597,30.980036 5.53567766,28.6425946 4.48996337,25.4304865 C4.99164835,25.5249009 5.50652015,25.5754955 6.03604396,25.5754955 C6.78564103,25.5754955 7.51164835,25.4767568 8.20131868,25.291964 C4.44161172,24.5493333 1.60893773,21.2815856 1.60893773,17.3643243 C1.60893773,17.3303063 1.60893773,17.2964324 1.60952381,17.2627027 C2.71765568,17.8682523 3.9847619,18.2319279 5.33201465,18.2738739 C3.12688645,16.8240721 1.67589744,14.3494054 1.67589744,11.5445045 C1.67589744,10.0628468 2.08117216,8.67401802 2.78857143,7.47992793 C6.84190476,12.3713153 12.8974359,15.5900541 19.727619,15.9272072 C19.5875458,15.3354955 19.5147253,14.7184144 19.5147253,14.0847568 C19.5147253,9.61989189 23.1944322,6 27.7331868,6 C30.0968498,6 32.232674,6.98190991 33.7318681,8.55322523 C35.6038095,8.19055856 37.3626374,7.51769369 38.9504762,6.59127928 C38.3368498,8.47913514 37.0338462,10.0635676 35.3369963,11.0642162 C36.9994139,10.8687568 38.5832967,10.4341622 40.0571429,9.79113514 C38.9553114,11.4124685 37.5619048,12.8364685 35.956337,13.9763604 C35.9721612,14.323027 35.9800733,14.6717117 35.9800733,15.0222703 C35.9800733,25.7060901 27.7139927,38.0256577 12.5978022,38.0256577 C7.95677656,38.0256577 3.63692308,36.6872793 0,34.3933694 Z" id="Fill-1" sketch:type="MSShapeGroup"></path>
            </g>
        </g>
    </g>
</svg>