<svg width="21" height="21" viewBox="0 0 21 21" xmlns="http://www.w3.org/2000/svg" xmlns:sketch="http://www.bohemiancoding.com/sketch/ns"><title>all-currencies</title><g sketch:type="MSShapeGroup" stroke="#D4D4D4" fill="none"><path d="M12.462 13.982c0 2.619-2.238 4.857-4.857 4.857-2.904 0-5.143-2.238-5.143-4.857 0-2.904 2.239-5.143 5.143-5.143 2.619 0 4.857 2.239 4.857 5.143z" fill="#fff"/><path d="M19.231 8.465c0 2.619-2.238 4.857-4.857 4.857-2.904 0-5.143-2.238-5.143-4.857 0-2.904 2.239-5.143 5.143-5.143 2.619 0 4.857 2.239 4.857 5.143z" fill="#fff"/><path d="M6.035 11.161c-2.843 0-5.035-2.275-5.035-4.935 0-2.951 2.192-5.226 5.035-5.226 2.564 0 4.755 2.275 4.755 5.226 0 2.661-2.191 4.935-4.755 4.935z" fill="#fff"/><path fill="#D4D4D4" d="M5.5 4.6h.615v2.903h-.615z"/><path fill="#D4D4D4" d="M14.1 7h.615v2.903h-.615z"/><path fill="#D4D4D4" d="M7.1 12.613h.615v2.903h-.615z"/></g></svg>