<svg width="33" height="33" viewBox="0 0 33 33" xmlns="http://www.w3.org/2000/svg" xmlns:xlink="http://www.w3.org/1999/xlink" xmlns:sketch="http://www.bohemiancoding.com/sketch/ns"><title>bitcoin</title><defs><linearGradient x1="35.161%" y1="0%" x2="66.637%" y2="100%" id="b"><stop stop-color="#F9CD32" offset="0%"/><stop stop-color="#F07D13" offset="100%"/></linearGradient><path id="a" d="M16 32c-8.836 0-16-7.163-16-16 0-8.836 7.164-16 16-16 8.838 0 16 7.164 16 16 0 8.837-7.162 16-16 16z"/></defs><g sketch:type="MSLayerGroup" fill="none"><g transform="translate(0 0)"><use sketch:type="MSShapeGroup" xlink:href="#a"/><use xlink:href="#a"/><use fill="url(#b)" xlink:href="#a"/></g><path d="M15.753 21.363c1.269 0 2.33-.13 3.335-.779.89-.577 1.326-1.371 1.326-2.251 0-1.385-1.194-2.467-2.956-2.742 1.057-.186 2.206-1.227 2.206-2.222 0-.866-.391-1.573-1.263-2.15-.853-.577-1.806-.736-2.886-.736h-3.418v10.88h3.657zm-2.747-5.296h2.008c.947 0 2.141.014 3.012.346.966.361 1.478 1.154 1.478 1.948 0 .808-.53 1.486-1.402 1.934-.872.447-1.914.418-2.918.418h-2.179v-4.646zm0-4.935h1.75c.928 0 1.919 0 2.72.346.907.39 1.307 1.082 1.307 1.789 0 .75-.274 1.299-1.181 1.746-.907.447-1.771.404-2.847.404h-1.75v-4.286z" stroke="#fff" fill="#fff" sketch:type="MSShapeGroup"/><path fill="#fff" sketch:type="MSShapeGroup" d="M14.4 8.4h1.6v2.4h-1.6zM14.4 20.8h1.6v2.4h-1.6z"/></g></svg>