<svg width="41" height="41" viewBox="0 0 41 41" xmlns="http://www.w3.org/2000/svg" xmlns:xlink="http://www.w3.org/1999/xlink" xmlns:sketch="http://www.bohemiancoding.com/sketch/ns"><title>bitcoin</title><defs><linearGradient x1="35.161%" y1="0%" x2="66.637%" y2="100%" id="b"><stop stop-color="#F9CD32" offset="0%"/><stop stop-color="#F07D13" offset="100%"/></linearGradient><path id="a" d="M20 40c-11.045 0-20-8.954-20-20 0-11.045 8.955-20 20-20 11.047 0 20 8.955 20 20 0 11.046-8.953 20-20 20z"/></defs><g sketch:type="MSLayerGroup" fill="none"><g transform="translate(0 0)"><use sketch:type="MSShapeGroup" xlink:href="#a"/><use xlink:href="#a"/><use fill="url(#b)" xlink:href="#a"/></g><path d="M19.691 26.703c1.587 0 2.913-.162 4.168-.974 1.113-.721 1.658-1.714 1.658-2.814 0-1.732-1.492-3.084-3.695-3.427 1.322-.232 2.757-1.533 2.757-2.778 0-1.082-.489-1.966-1.579-2.687-1.066-.721-2.258-.92-3.608-.92h-4.273v13.6h4.571zm-3.434-6.62h2.51c1.184 0 2.676.018 3.766.433 1.208.451 1.847 1.443 1.847 2.435 0 1.01-.663 1.858-1.753 2.417-1.089.559-2.392.523-3.647.523h-2.724v-5.808zm0-6.169h2.188c1.16 0 2.398 0 3.4.433 1.133.487 1.634 1.353 1.634 2.237 0 .938-.343 1.623-1.476 2.182-1.133.559-2.214.505-3.558.505h-2.188v-5.357z" stroke="#fff" fill="#fff" sketch:type="MSShapeGroup"/><path fill="#fff" sketch:type="MSShapeGroup" d="M18 10.5h2v3h-2zM18 26h2v3h-2z"/></g></svg>