<svg width="21" height="21" viewBox="0 0 21 21" xmlns="http://www.w3.org/2000/svg" xmlns:sketch="http://www.bohemiancoding.com/sketch/ns"><title>btc-small</title><desc>Created with Sketch.</desc><g sketch:type="MSShapeGroup" fill="none"><path d="M10 19c-4.97 0-9-4.029-9-8.786 0-5.184 4.03-9.214 9-9.214 4.971 0 9 4.03 9 9.214 0 4.757-4.029 8.786-9 8.786z" stroke="#D4D4D4" stroke-linejoin="round" fill="#fff"/><path d="M9.91 5.872v.587M9.91 12.996v1.008" stroke="#979797" stroke-width=".8" stroke-linecap="square"/><path d="M10.82 13.2c1.22 0 1.93-.73 1.93-1.8 0-.8-.59-1.53-1.3-1.64.61-.13 1.17-.69 1.17-1.53 0-1-.71-1.7-1.87-1.7h-2.97v6.67h3.04zm-.21-3.78h-2v-2.15h2c.75 0 1.15.48 1.15 1.08 0 .61-.4 1.07-1.15 1.07zm.04 3.04h-2.04v-2.3h2.04c.82 0 1.24.54 1.24 1.15 0 .71-.46 1.15-1.24 1.15z" fill="#9B9B9B"/></g></svg>