<svg width="41" height="41" viewBox="0 0 41 41" xmlns="http://www.w3.org/2000/svg" xmlns:xlink="http://www.w3.org/1999/xlink" xmlns:sketch="http://www.bohemiancoding.com/sketch/ns"><title>dogecoin</title><defs><linearGradient x1="31.439%" y1="0%" x2="69.955%" y2="100%" id="b"><stop stop-color="#FBE028" offset="0%"/><stop stop-color="#F4AF0F" offset="100%"/></linearGradient><path id="a" d="M20 40c-11.045 0-20-8.954-20-20 0-11.045 8.955-20 20-20 11.047 0 20 8.955 20 20 0 11.046-8.953 20-20 20z"/></defs><g sketch:type="MSLayerGroup" fill="none"><g transform="translate(0 0)"><use sketch:type="MSShapeGroup" xlink:href="#a"/><use xlink:href="#a"/><use fill="url(#b)" xlink:href="#a"/></g><path fill="#fff" sketch:type="MSShapeGroup" d="M12 20h7v2h-7z"/><path d="M19.732 27.5c4.554 0 7.524-3.146 7.524-7.326 0-4.158-2.97-7.348-7.524-7.348h-5.016v14.674h5.016zm0-1.628h-3.19v-11.418h3.19c3.63 0 5.632 2.552 5.632 5.72 0 3.146-2.068 5.698-5.632 5.698z" fill="#fff" sketch:type="MSShapeGroup"/></g></svg>