<svg width="33" height="33" viewBox="0 0 33 33" xmlns="http://www.w3.org/2000/svg" xmlns:xlink="http://www.w3.org/1999/xlink" xmlns:sketch="http://www.bohemiancoding.com/sketch/ns"><title>dogecoin</title><defs><linearGradient x1="31.439%" y1="0%" x2="69.955%" y2="100%" id="b"><stop stop-color="#FBE028" offset="0%"/><stop stop-color="#F4AF0F" offset="100%"/></linearGradient><path id="a" d="M16 32c-8.836 0-16-7.163-16-16 0-8.836 7.164-16 16-16 8.838 0 16 7.164 16 16 0 8.837-7.162 16-16 16z"/></defs><g sketch:type="MSLayerGroup" fill="none"><g transform="translate(0 0)"><use sketch:type="MSShapeGroup" xlink:href="#a"/><use xlink:href="#a"/><use fill="url(#b)" xlink:href="#a"/></g><path fill="#fff" sketch:type="MSShapeGroup" d="M9.6 16h5.6v1.6h-5.6z"/><path d="M15.786 22c3.643 0 6.019-2.517 6.019-5.861 0-3.326-2.376-5.878-6.019-5.878h-4.013v11.739h4.013zm0-1.302h-2.552v-9.134h2.552c2.904 0 4.506 2.042 4.506 4.576 0 2.517-1.654 4.558-4.506 4.558z" fill="#fff" sketch:type="MSShapeGroup"/></g></svg>