<svg width="21" height="21" viewBox="0 0 21 21" xmlns="http://www.w3.org/2000/svg" xmlns:sketch="http://www.bohemiancoding.com/sketch/ns"><title>dogecoin-small</title><desc>Created with Sketch.</desc><g sketch:type="MSShapeGroup" fill="none"><path d="M19 10.214c0 4.757-4.029 8.786-9 8.786-4.97 0-9-4.029-9-8.786 0-5.184 4.03-9.214 9-9.214 4.971 0 9 4.03 9 9.214z" stroke="#D4D4D4" stroke-linejoin="round" fill="#fff"/><path d="M6.5 10.4h3" stroke="#979797" stroke-width=".8" stroke-linecap="square"/><path d="M10.06 13.3c2.07 0 3.42-1.43 3.42-3.33 0-1.89-1.35-3.34-3.42-3.34h-2.28v6.67h2.28zm0-.74h-1.45v-5.19h1.45c1.65 0 2.56 1.16 2.56 2.6 0 1.43-.94 2.59-2.56 2.59z" fill="#9B9B9B"/></g></svg>