<svg width="21" height="21" viewBox="0 0 21 21" xmlns="http://www.w3.org/2000/svg" xmlns:sketch="http://www.bohemiancoding.com/sketch/ns"><title>eur-small</title><desc>Created with Sketch.</desc><g sketch:type="MSShapeGroup" fill="none"><path d="M19 10.214c0 4.757-4.029 8.786-9 8.786-4.97 0-9-4.029-9-8.786 0-5.184 4.03-9.214 9-9.214 4.971 0 9 4.03 9 9.214z" stroke="#D4D4D4" stroke-linejoin="round" fill="#fff"/><path d="M10.55 13.82c1.18 0 1.98-.56 2.54-1.32l-.71-.39c-.38.57-1.07.97-1.83.97-1.14 0-2.07-.69-2.42-1.75h3.03v-.52h-3.15c-.02-.14-.03-.29-.03-.44 0-.16.01-.31.03-.46h3.15v-.52h-3.03c.36-1.05 1.28-1.73 2.42-1.73.76 0 1.45.41 1.83.97l.7-.39c-.53-.75-1.35-1.32-2.53-1.32-1.6 0-2.91.97-3.31 2.47h-.53v.52h.43l-.02.46.02.44h-.43v.52h.53c.39 1.52 1.7 2.49 3.31 2.49z" fill="#9B9B9B"/></g></svg>