<svg width="21" height="21" viewBox="0 0 21 21" xmlns="http://www.w3.org/2000/svg" xmlns:sketch="http://www.bohemiancoding.com/sketch/ns"><title>gbp-small</title><desc>Created with Sketch.</desc><g sketch:type="MSShapeGroup" fill="none"><path d="M19 10.214c0 4.757-4.029 8.786-9 8.786-4.97 0-9-4.029-9-8.786 0-5.184 4.03-9.214 9-9.214 4.971 0 9 4.03 9 9.214z" stroke="#D4D4D4" stroke-linejoin="round" fill="#fff"/><path d="M7.527 10.62h1.45c.09.18.15.38.15.6 0 .6-.48 1.15-1.33 1.53l.3.62c.42-.22.83-.4 1.18-.4.75 0 .89.46 1.79.46.63 0 1.07-.2 1.35-.47l-.36-.67c-.14.18-.51.4-.95.4-.57 0-.84-.41-1.48-.41-.18 0-.38.04-.52.09.41-.29.76-.71.76-1.32 0-.16-.03-.3-.07-.43h1.22v-.54h-1.5c-.34-.46-.81-.84-.81-1.57 0-.8.67-1.28 1.43-1.28.61 0 1.1.4 1.27.82l.67-.4c-.37-.71-1.11-1.12-2.02-1.12-1.22 0-2.24.87-2.24 1.97 0 .73.41 1.16.77 1.58h-1.06v.54z" fill="#9B9B9B"/></g></svg>