<svg width="21" height="21" viewBox="0 0 21 21" xmlns="http://www.w3.org/2000/svg" xmlns:sketch="http://www.bohemiancoding.com/sketch/ns"><title>stellar-small</title><desc>Created with Sketch.</desc><g sketch:type="MSShapeGroup" fill="none"><path d="M19 10.214c0 4.757-4.029 8.786-9 8.786-4.97 0-9-4.029-9-8.786 0-5.184 4.03-9.214 9-9.214 4.971 0 9 4.03 9 9.214z" stroke="#D4D4D4" stroke-linejoin="round" fill="#fff"/><g transform="translate(5 5.5)"><path d="M2.765 6.09s-1.902 1.985-.811 3.112c1.091 1.127 2.888-1.53 2.888-1.53l-2.077-1.582z" fill="#AEAEAE"/><path d="M3.176 6.386s-1.323 1.5-.552 2.139c.77.639 2.16-1.266 2.16-1.266l-1.607-.873z" fill="#fff"/><path d="M2.409 5.61l2.027-3.594s1.33-2.255 4.264-1.868c.8 2.741-.323 4.061-.323 4.061l-2.93 3.467s-.277.376-.703.12c-.426-.256-1.944-1.282-2.271-1.587-.327-.304-.062-.598-.062-.598z" stroke="#AEAEAE" stroke-width=".75" fill="#fff"/><circle stroke="#AEAEAE" stroke-width=".75" fill="#fff" cx="6.5" cy="3" r="1"/><path d="M3.466 3.721s-1.672-.633-3.323 1.621c1.622-.374 2.244.303 2.244.303l1.079-1.924z" fill="#AEAEAE"/><path d="M6.853 6.052s.995 1.922-.376 3.75c-.211-1.894-1.144-2.1-1.144-2.1l1.52-1.649z" fill="#AEAEAE"/></g></g></svg>