<svg width="34" height="34" viewBox="0 0 34 34" xmlns="http://www.w3.org/2000/svg" xmlns:sketch="http://www.bohemiancoding.com/sketch/ns"><title>stellar</title><desc>Created with Sketch.</desc><g sketch:type="MSArtboardGroup" fill="none"><g sketch:type="MSShapeGroup"><path d="M17 33c-8.836 0-16-7.163-16-16 0-8.836 7.164-16 16-16 8.838 0 16 7.164 16 16 0 8.837-7.162 16-16 16z" stroke="#EBEBEB" stroke-width="1.5" fill="#fff"/><g transform="translate(7 8)"><path d="M5.529 12.179s-3.804 3.971-1.621 6.225c2.182 2.254 5.776-3.06 5.776-3.06l-4.154-3.165z" fill="#EC8017"/><path d="M6.352 12.773s-2.645 3-1.104 4.279c1.541 1.278 4.319-2.532 4.319-2.532l-3.215-1.747z" fill="#EEBB18"/><path d="M4.819 11.22l4.053-7.189s2.661-4.509 8.527-3.737c1.601 5.482-.647 8.121-.647 8.121l-5.861 6.933s-.554.753-1.407.24-3.887-2.565-4.541-3.173c-.654-.609-.125-1.195-.125-1.195z" stroke="#5B6971" stroke-width=".75" fill="#DCF2F9"/><circle stroke="#5B6971" stroke-width=".75" fill="#fff" cx="13" cy="6" r="2"/><path d="M6.933 7.443s-3.345-1.267-6.647 3.242c3.243-.748 4.489.606 4.489.606l2.158-3.848z" fill="#5B6971"/><path d="M13.706 12.104s1.989 3.845-.753 7.499c-.423-3.788-2.287-4.2-2.287-4.2l3.04-3.299z" fill="#5B6971"/></g></g></g></svg>