<svg width="21" height="21" viewBox="0 0 21 21" xmlns="http://www.w3.org/2000/svg" xmlns:sketch="http://www.bohemiancoding.com/sketch/ns"><title>usd-small</title><desc>Created with Sketch.</desc><g sketch:type="MSShapeGroup" fill="none"><path d="M19 10.214c0 4.757-4.029 8.786-9 8.786-4.97 0-9-4.029-9-8.786 0-5.184 4.03-9.214 9-9.214 4.971 0 9 4.03 9 9.214z" stroke="#D4D4D4" stroke-linejoin="round" fill="#fff"/><path d="M9.71 14.2h.61v-.89c1.54-.12 2.12-1.04 2.12-1.95 0-1.3-1.09-1.69-2.12-1.98v-2.17c.56.08 1.07.33 1.47.76l.5-.61c-.49-.51-1.14-.83-1.97-.91v-.93h-.61v.92c-1.21.07-2.08.8-2.08 1.84 0 1.23 1.06 1.57 2.08 1.85v2.44c-.8-.09-1.41-.5-1.8-.94l-.49.63c.5.57 1.27.99 2.29 1.05v.89zm1.87-2.77c0 .47-.31 1.04-1.26 1.14v-2.27c.7.21 1.26.48 1.26 1.13zm-3.09-3.2c0-.59.5-1 1.22-1.05v2.04c-.68-.2-1.22-.43-1.22-.99z" fill="#9B9B9B"/></g></svg>